<mxfile host="Electron" modified="2024-06-02T18:28:10.637Z" agent="Mozilla/5.0 (X11; Linux x86_64) AppleWebKit/537.36 (KHTML, like Gecko) draw.io/22.1.16 Chrome/120.0.6099.109 Electron/28.1.0 Safari/537.36" etag="3XqaRc7yeNiNvYP-ujUi" version="22.1.16" type="device">
  <diagram name="Page-1" id="LAMq5guoCeIbedF3MHj4">
    <mxGraphModel dx="1235" dy="1809" grid="1" gridSize="10" guides="1" tooltips="1" connect="1" arrows="1" fold="1" page="1" pageScale="1" pageWidth="850" pageHeight="1100" math="0" shadow="0">
      <root>
        <mxCell id="0" />
        <mxCell id="1" parent="0" />
        <mxCell id="uJoUfiKjGKuOFhNrrg3Z-17" value="" style="rounded=1;whiteSpace=wrap;html=1;" vertex="1" parent="1">
          <mxGeometry x="309" y="-619" width="470" height="170" as="geometry" />
        </mxCell>
        <mxCell id="uJoUfiKjGKuOFhNrrg3Z-13" value="" style="rounded=1;whiteSpace=wrap;html=1;" vertex="1" parent="1">
          <mxGeometry x="110" y="-250" width="270" height="70" as="geometry" />
        </mxCell>
        <mxCell id="94yoXvl2uTvyYO7qp8fL-2" value="" style="rounded=1;whiteSpace=wrap;html=1;" parent="1" vertex="1">
          <mxGeometry x="950" y="-613" width="190" height="60" as="geometry" />
        </mxCell>
        <mxCell id="uJoUfiKjGKuOFhNrrg3Z-1" value="&lt;div style=&quot;color: rgb(212, 212, 212); background-color: rgb(30, 30, 30); font-family: monospace, &amp;quot;Droid Sans Mono&amp;quot;, &amp;quot;monospace&amp;quot;, monospace; line-height: 19px;&quot;&gt;&lt;font style=&quot;font-size: 16px;&quot;&gt;&lt;b&gt;&lt;u&gt;OpenSesame&lt;/u&gt;&lt;/b&gt;&lt;/font&gt;&lt;/div&gt;" style="text;html=1;strokeColor=none;fillColor=none;align=center;verticalAlign=middle;whiteSpace=wrap;rounded=0;" vertex="1" parent="1">
          <mxGeometry x="995" y="-603" width="140" height="30" as="geometry" />
        </mxCell>
        <mxCell id="uJoUfiKjGKuOFhNrrg3Z-2" value="" style="dashed=0;outlineConnect=0;html=1;align=center;labelPosition=center;verticalLabelPosition=bottom;verticalAlign=top;shape=mxgraph.weblogos.github" vertex="1" parent="1">
          <mxGeometry x="120" y="-242.5" width="60" height="55" as="geometry" />
        </mxCell>
        <mxCell id="uJoUfiKjGKuOFhNrrg3Z-4" value="&lt;u style=&quot;&quot;&gt;&lt;font style=&quot;font-size: 18px;&quot;&gt;inference API&amp;nbsp;&lt;/font&gt;&lt;/u&gt;" style="text;html=1;strokeColor=none;fillColor=none;align=center;verticalAlign=middle;whiteSpace=wrap;rounded=0;" vertex="1" parent="1">
          <mxGeometry x="975" y="-487" width="160" height="30" as="geometry" />
        </mxCell>
        <mxCell id="uJoUfiKjGKuOFhNrrg3Z-5" value="" style="shape=image;aspect=fixed;image=data:image/png,iVBORw0KGgoAAAANSUhEUgAAAmQAAAGYCAMAAADbdw5xAAAACXBIWXMAAAsTAAALEwEAmpwYAAADAFBMVEVHcEz////U1NR0dHT////////////////////4+PjBwcH///7///////////5QT0/////IyMj///////7///+Ghobm5ubZ2dmMjIy8vLyFhYVzc3OmpqZ7e3v+7bnm5uatra3/88hERET//uDxyXD51Yf+56thYWFTU1P3y3D83Jebm5tvb2/41o3zu0+VlZW5ublaWlpqamq1tbX+/v7+99RbW1uVlZX1xGD+5KVoaGjzy3b+/u3uxGPsvVaenp7835r71YP2w1/wvFHyy3vntUnl5eW1pkjVuUn/0h8iIiIeHh7/0h3/0B//0yAgICAcHBz/0B3/qQEVFRX/0Rv/rgD/qgH9rgH/0xv/rQD/rgQkJCT80xv/pwH/qwQaGhr/1B7/zyH/zyT71B/80Bv61Bv7qwEYGBj+qwH91B/4qwH+1B7/sAL/0iL/1Bn/zhv/zx/4rgH8qgH50BoSEhL6sAH/qAf/zyoODg48Oj790B/60B/4sQP/0R84OUP0qwH/0if/zSX/xxb60yT80iD1rgP7rgL61Bf9rAb5rgk7O0f/1x/+wxMmJiY9NkX+vw//yhj+uQz/1CQyMjL/1Cz/qwr3qwkJCQn6tQj3qQL6qgYzPEb4uQn7zyf9wRz7pwH7zhn/0xH/zC7rTkr/0jH2sQ42PT7+0iT8ziA3Nzb/pw71tAT/xx9JSUkuLS3/0BX/yx01OUv+1CL9uhfwqwX+sgLxsAL5uBT41iH/yCf61RDzpgfyS1E0Nz/5vw71qRP7qw3/wiT+sAv0TEb/2Cg9OlBAP0ApKSj8uyLtqBv6pQrtrin+3DLjxk3+3VD92T/1sDf21RrrtDfnqQ81LxzwqxL6sRY+MA/vpg3+4T7tt0PQtkjzrCHkriI2OlM+My1mVRm+pD5JOQ84LCaghC/v0kZVQxb8wjHTUTXztRdAMDuEcCaSfjPmrjOslDf/zj4yJQ/z1FZ4Yx3nUVhTLjWuUFPiWlmTRELppSrrkjDXW2J0OD3GVlVoMTDrfi3ZaCltd7pHAAAASXRSTlMABoLdIi8dFwtkkkoRA0P+KIU3UT3HbHe7mdXxps2Ce59y/lrawZDq+OKruOe3/7+S8N+eWmb+suua7dJQ4+2poM/298n0Yf/3oI8b2gAAIABJREFUeNrs219I23obB/AzmDuDnXeM7VwXxCkozDtB2Rxz200gCg1NYkoTTtNaYjTnbTOaQNvR9m2b08B7JTas4VUPxdLSMzjjtMet9KKt7KK2vCCWioheDy/kvd3l+0u3vf+Y7195L9bnI9Zo40388jzP75f41VcAAAAAAAAAAAAAAAAAAAAAAAAAAAAAAAAAAAAAAAAAAAAAAAAAAAAAAAAAAAAAAAAAAAAAAAAAAAAAAAAAAAAAAAAAAMD/12/QBwCX7urNByPDtrGZiXv3Rufm5kYnJmbGbLbhB9euw7UB/6vrV2/fGbY9uv948vj44LyDnHROTzqdA8vx5N3RCRS1IYga+C9duTViGx2fPO6c9Hq97lEllYpGxYBPC/rEaNQwekdHvXr9pHMwOX7PdmfoG7hg4D9z7ebU2Pj05MHeUb29xVKUqTidFEKwLIG+MARBbBHoG6Rd33t/jorajO0GBA382yVsaHj08eT53lElKqbTHMESDCOQ8pbAWAiC4xgnx6IvLMdxsixviWLW7J4eP56zPfgaLh/414amJmaP39frJkPSPk0L7O7qAZKkaZLUNA29cBxBCD5O9nGcaRiGiN6gGJYiOLPS7Tx5art9Ba4h+KeD/o2xu3887UZlpVRKc6u0KAZ0PZLSZDmdbvQZWjBA00Ht19UgGdjZ2UlFgk4np2RKJYUQUpXuwfS9YWib4EK3puYmz7uVnWCQpJSMGdCCQZpOy4LAkAy16nRqmqhlNVH0iaIgCCRlFTia1gSzUWqXShmKIgWf0TvZfzp8G/bSwOd8OzZ+jMZ8anV1FXVFXRcDAZQlQlEUlvAJWdPcQp9Z04hGTSNrtE1TscY1wulEVU630AzDsgrLlo7Opx/dgAsK/tFt2/j+Sc0a7Fm0mqSDEVTE6IDPl0aNsNSoHx62+t41W81m/6h8eHjYKGVMNPaLmkZHfooENPS7KJIsFah0Zh89gK4J/tbNsen9vZqoBdA6MZNRFIJiBPSi0elU7+ystblZreb61tfV7e1tdRsdVptI63Ve303LrMIEaYaiCILRgpGAb6td3388MQIxA59ctU13alsCjdaSum6YMgoZQWy127r+ovzy5cv427dv19bWijEJkzBXAklubPCx9fV1FLd4/GUZBc0QRVogBdRnA5FI1LC20GqdhxAz8MHXtrvn3VSQ+TDGI6uybJqcfna2WY3zsbU1LBmy2+34R/1DDMNwuwMPJ6VEIqaq6sbmWV5PpQwtTVAckdY5tFSgxaP3k3NDcIHB9Ttzx6fdCKmUMopPYyjGaWazUeNFuZnLqTE+FpcKPIZfIJxMJIuxNVTUNuLVzdf5vK5nTYKgaRnNds7d+t5e5/7wLbjIg76knHjS6VZe/Mqi8b7E+RTFNHW9XN58hQIWR9y8JPGS3Y59VjgZSrrdxSIfj8Xjqtosv8gbhm4E0bLUWpU28vnKycH9EdjPGGRXpu4f1HYiQR/BKihkGbPdLh2WN5tVVJvikiRhfIGXipK0cEHIljyeZLKwJhUKKJFqPIfKGRrQKj+lAjKXUVhZDmpUuzNrg545uIZmHu5lBc1JsgzJskpG1xuH5SZKCx9LJMLhZ888824MK1ql7PMh8+LzdrskhYpSsVBwx3lejVerzdf5VCUrE/37nGgFIHbP78JNgEE18nT/SCZJs8SQFIHm9Gwqj0Z9lUflKxx+88bl8qyseOySFTL8opDhmB1fCHkXJCmc+KWAGicfU+PNVj4foH0Uw3CcQqyS2b0nMzCZDei+xWnbKjeyQgg07Uvt/OH3v1srSM+xlZDHtejwLiHeRVSoeB6/IGQOhwNDtczisk5fQOehiOaqzXI+KgoCxxGMRhEsUd8ffQCT2cC5fe/4yGc9IkaRNC02er2zZpxf8HjeeMIrLsfiomPxGRL22iXM778oZH6/H8OxeQ/i/cGFcubyeMJJzO9Wc83WYb0tCyRJcmhFIURPZ23wGNCATfwjowc1VMZIBoUsEozke813OTWWeGPVo2Wvw7Jkty+uLKBK5nZjnw8Z7n+OQobPe5aXl73eH6zK57LguF/d/tO7Vr7/IFAGrSh8wcrp5ATM/wO1OWZ73OmhkYliuLQQFGuVcjWXU9WNjTBqld5lj2cllJxf6MPd7otD5kYBxHG7FTKULVTP+hlzrXg8MTW3nUNLgJpAmbquCavOGmqZI3DpB8Y3Uw9rNV33ocUflTbq9cNWlf+twyHFVD9KjVsKh1HTS7o/8lvbrheEzDpbclvt0hOa/8SeSCQ8S89cIb7aOmmntSBNEqVSSa6d34eUDczIP/NkT9A00UewXLqGhrFcjn/188+LuFTwozTZ7SF30p1MfhjoUZQuGMiwT/Vt3hsKhezzf/mJ/Zdk+NnS0o/FWC6XO8mnNNJ6OoOjxV5nfArG/8HI2MR+mwpolLWwNIz6YXUjVnj+nXUv0vF39yf7gbmwin16E/94xl+PUEodDrtjXkLrUnU91+rVZI6gGEqjg9G9adj+H4yMHXfbu7TT+o8Qs5bfrOY2YpL7u3mHA7s81t4GhlppnEeTWd6QBY7hZLmhH53ODkPKvnhDEwdHEcNkKJlLmwbKmKrGikVsYf5DPbqkkOE4qoqYhPVvN1VfR7PmFsewym5k5/QhpOxL9+3o+xqpRTWGUDK7jfLL+HqyUCxK/VYnYRJ+OQnDMdxh9Uxc8hde8evxzbxhZghWIcSdne7DKfgzfNl1bPTUYBlS69+qbLyuqnwhLPmL0sKPmLWzf0khQ2HFHYuLi2gwQzlz8+p269DYzbAsQQcjOz1I2Rft2sRBahUVFFIm0majhVplMeFZtmJRlFAdky4xZPbF779HOXN4XeHwhlptHmZNhmWcDc4p783CTsaXnDG0rmQyGY4g5D+zd3ahbWRXHKewhYXSZSn7HFiSGLaQvBWy5IO0pRTBKDDDlTRjRiIzozGOlNGMZaLBGq9Xw0z04UAeHEVUNmPHwo6cbLqKY8WSZVw7IdnGjr9jx2k+ba+TxY2TJn3qY+9VvLE2tR8Kbo3E/EEggQY93B//e+655xwlYn2QMVXjeBoF6cI7bTtkeL1b0TRDTsEd009QdlS1Vvfk4CFzMSr1XHn01WA13CajrkBrNtanxkN6GkLGodQFwgzbprD//XZJwqiM5xVFM0Ks2p7Ljrgo1AR8MvvkC9PLKtXHHt6zwSPeeVd1IDHfrhYrejhMgkYG4zF0BwmAdfsgw3GAUrkKTdPKV7rEqldy84kaKhBojebmR/eYXlaJ+njX9IP+6x1OGPKHG7vvyCGG43lax9G1EYLMYkG1F9sDGXyB9U1YUXRaBEC0xuPynfuttZStMTtys2PUvGGqRO0+mIh214Up6GXR/r+k5DSX53lSxBkcQQbj/u2DrJjCAFjxwKr0iEUFjVBczo11nDzV2Dh43j72ap9Zk1FxOnTgnifqsNkoyj/Y3a62MBZOcdO4Bcex9Sshy3ZtlyWwCYKOXA0DyN60uNx+2lPjj7qIWlt2+qhZX1Zpm+Xex34P9DGCcgz230nJ6IISVUxY/qfCNq4+UQOdFldziWQgQPnDdZ7h/bvMZako/WzXHx7UhR0UQTiTyT41xW7XSfK/IU6HO+aVXLLVH6Xs/pHBJ4fNoSwVpd8cGR3udtj9RGtysO9qiNV3AjJMY0LyFehlrSiVEf7myd5PzZWpHH3yxTARTdgo//mbI7mrobSiW///kEHMeoSQPLCaSFKEa8xxPTtdZXbKVc5muW82SXnq7FRtLJYbkNM8Twd3ADJ4AICQpW50J+GuTdR4HMO/N28xK0afP5xPOk52ELaaRN8NWWb5CG/dASMDAOiGIXe1Z6PVfls46nKOHvzIXJ3K0KcHH3tOn6om7NWJbshYSOEjkR2BTAScpmmymquLOhyxy5eJ5Kx5wqwQVc0OhhvrKHs0meiT46rGcW5yJyCDVoZDytLyle5s46nWy5fttnt7PjHXpxK0+8io32arIYjEIGRMMTiFI3cGMsli5RVOkNQb81mHK+CibDV395op2QrQzw/eHY7aYajdGstdiWuKlvfiorSx8igli1pH1lOz7/tB3rW3oQ9b5mw3mkw2ukhKE7AftKHAt0GSJrGraurOg6jdZgsTzrH9ZuxfCVH/9P1EuJYg7CggY3UNGpkkihtLj5MkLugK3EPdJJBwXPjKwhTLp5VgkMQtLIsBcvPrJlSwjThCXeRM0CJgEoy6JEzQgzh0LYAB1GBXQhn8OiBpt97S0zUwP4ZGfzqdzsd7zdi/7PWrA2NOR/83NsruWZUNRnCTJA2kEifDOzuBYhhKpFCIkKLEsCqrMhLIuGdmCgWfBA+jZGHzcwImGAzIZDIijmb6GCxkNyOKEmvotPXH93JpbwoqZSTRrCn21sDI1w47ZIzKzv7abCwp9xRZ1bTTWdPY77HVnjbiPfoxN4kDrKQtCYPu4oXuBk+cEYWBYVOQOxHkOC+p5/ORgg9jZRYv+DaFDMcN3evLAOhdSpDL87SERNN5jrZCJ4PC0ulSyGDgDxlDzXItal/WU+2iCFt29HefmctU3jq05192inLcjLaO5OJyjwAhA3Cbw0ogkw3d19kZ8bJplS2yBsVznGGkg3zGBwSIIb4pZFbOXZyxokDE3JHIDK8g8TORCHQrpjgYg1PwDyHDgEVg0mx7d3akmiKo2OirKtPKytvIfjs7X01R/pvnB+//EBLYlmNuGF+VTrXDLIZ8olDoxNSUrDI0hKwA900fwBiWtRyHvAGRYTav/bfS7gg/k8/rkKeMz73+aIR3kz4QVDhdR1WR+E9z/ngRMjbNiH3zw+iPKc4Pjx420xhlrV88nE8QhCvgDNz/oatHEo4XawklltmADNc0N4RKTaVUkNF14cSJaxYYtGdgDC9Z0WlA3GrSohWHZHF5uDtGMp0ZRsK80M28mMSIGUDyaOoK9DLw4c0SulxiBRwMrA77EWQj3dNV5kKVs5F9uVqTaHW5XM6OvlSXYDl2AaCBY9BINqjB+Ygb4KwsqxbyzNTUJNLUVFcIcgNPmNc4WsSlLTrLcR/gdMRYJJOxdv34bFcXk/GR9bSmKRjwgdK4/x1kFoxlL9DynVUP5QwE/OHBA2bNTxnrs8OD9mgsAE9x4fa4EkTxkbU4n7MEsmCk4G0JpYVr2vj41MTSCtLSo+eT8c6C95oR0ooh/FY33hLDWBUfXa/fmpp6uLSytra2sjQ7ORXqOVNffwwaFhBLD5dCsSobVcmyZCSUWu33uy4HCMo5/aW5VGWrX1a9chKxWNTu7Mix13gvvr7UP+l+s3r5IMuQGX58cuL14ouFN3Nzb5YXXz56O56v11oMWWWhHW2RjcUZlpGAj9b+NrW0trgMn32zsLy48mhyyuCOk5KqMrhUChk6RGDFBhNQr6Fa7EAgQNnsw4fN3qWy1ScH7hH2WMxF+LMDcW/k/QgxrCTGwjDDYCEo/PjzP/5zee7cpebe3rZzcwuLa48mx+uP98gplY5snsKwYozAqiKoNyYnVhbn5i41wGcbns09W3w9MRm/AEQIGVP6S8VuFQxlUARM0UNqLhaARmazdzw5ai5WuRrZ0bsJyh8LU/aO1VQcZN6PECu97MEssiwAHzf+/PWLuXMNTW29T5/29n536duFlxOT+QsZRlX1LYo2rF6OEXARi09OvFx+NtTWNoRebb1tcy/WJiYVEYiCoHutG5Cx75wM5VBYpf5MS7Gr3Bb227JHzFxZmeqjPfcCVN3pOrvdf+MfXVLmXecbhloisZK/S1JVMeOOv329/KbpaVNDcxNEpXmo4ewzSNl4ZydQZWOG3wKyGZ7DAD7+/OXCt7ebm5ubmr5rampqvn32++WV5+OYT/Ty+f+ADBQb1lW53nd8oC/hcTjqkteTrz43l6s8tXv/135bXZiq9f8p1WVgGT0YXJ8xvDFFEUoXRFGbfPRi7s9PexFiFy8ONTc1N5/9OyTlTGdGVTWa3gqyvMWXufX29cL3t582wacahiBkF4eamv/6YmmqxScy9MwJHMdoHA8GrRjWg1oLUJ+UG1fSfD0p37h/+tTJWs91//Dej831Ksvdct/jmqij1h74N3tn99NGdobxu7ZXTbXtP7BSVWkvsneVtmpVqUqjyNIYaazBXx0jj2fGMnbsGXu0WPYkY/wNJnIoLCjEhhhEDC5sJk5YSIzMJhVGm6w/itbUoW5twARpS0KBq172Pd5IvYE/wJIfyRI39iCdn57nfc85c86Dh8uDmzaCE6H078E4HuyM+r94FmD4T+m4Go8XEkiIsJiUkOKtvXrZy/ntClm+BLLgIj87u1vfe7Q1XiggJ4OvSul0OpZ9dF4q4st+7zaOji4WaZpWKnF02DFqPrw0je6WCLnnv3nzos8QvqUa+LT7QnlH6qNP3riGnA/UExNrflOQ0RI4TePttZ1FtOmiLXAVnhbkscr+QSsWz+YRY2BicUAlVoCyrPwFwZsU8sVTGEqaNnGzjsphLbOVhy950h7PD5BJsfHafmWE84dYjFIoKdHWD1zRoijSHyBjGJYV/fMvd15Y1PcAsu4sRmfq4+vr6r5es35o+Kl7EEHmDdm8XiaV8sJg2xBigsCAngFkZ8enmYIUyyMPi0uSx+NJS/FM9ehsnudDIe5iyHD8CcXJm6W9KsAV97QVj6G/IDhPj9+OyP5FwU7Ze+gngFh/P9nv9dJeCE74R2iGFYKmL56vrd/v+9xqmOju9u9I/eTqvyI6lb5Xf394ZnAQsCJ6cCXdz4ZCotCPzt23eRFo/ewTUR4r7T2CsGuXYnGEC3iSR8qP1+oVSsuKl1x7g+ELnBzdrUNnOV4AMDMIMnDBuOTJxJpH9c1Zyk5CIONYyIuTJE1+sM/2Wf9aRqAp99w3k5P6zyOGv+5c7+ZlB+p3v//upsGgtwxZ15ZNC2LIxgBk/YIgsixJatsX22BGwsawwR4ZQMk3slttxqS4BzCD8kpKZKqHZRPJ0pesXeJYMOVgKzeqeSldKLTtz4Os0OPJZ7Kx03oxx/sVNC225/kxrVaL+loEWXsjNlRlC373y4eTZmuvYWCyO1XWifrV+5WvDIa+IWv4qdtvXwyRTI9CwQoCbWNhzNE1EJzSiGG0Mai4s1uv5RsNTx65WQzVVYlYNpHP5qtQlCHIqIshM06nHHT5pAUNaSGbRXzBJwZpmU83sgiyxUEjSRNeAudwvH0kHsYp25DB0wGy0CLkpc9q6R1Q3fruk591x6zj0vK3O86bBp16yPdwGSAzhWhSyTBCqN8mMATBj44GAncCoxxOaqfHwMlqiUYW6Eik03mEWraRzUKD2Tovux3RSyFThDgHWz5sSglwsmwW+gYJOgdoLjMfIOMHGZpEx+HB4+CBoxyHE8aQEhjj7UroL02muZmVyV7VgC6y8unPu4PWafrFtTcPetW6vvsra7wJIBNplsIZkaWNHKGVA39eWl1aWkre4QgiZJR/cLKYR0qAKaXRRFehUcgn0uBkpmj0srjEFAxHCJWTWkbKSDGgEhCLIcjSUjobP63vOniKoBkc4wLJ5Orq6lLybgDHOUKJ4dAOKFmSfeJ3P99Z0asHNBrnt90NPx2nX/9tyqXX6yZeTy4PTpsokxcg40WRvI1hPdzde2HfShi0tBHgmBRXLB09yhYKsXwiL22lPVuo7Ifoy9ROykpwMuqyA4tTUNBX9g/GY2mUkltbmTwErYSmMAqZWr1o91MOwTFy+07yVnjF5wv7wskAh7Z0YHZoBxiAbNE9//2KRaWP9Op2/tA9GKPT9JtvdboJvarv9UP/WGiBsiPIFgEygsO5u0s+q1VzU2P2+VaTgRGSm397XpWyBSjHsjFPJtNqNZtNTzxWPahXCEeUJS65gpyIUhRZrB+1YrG8pwnfynjQbKyUhp+p7pWKfvdth2AzBpIrPrNGo3GZEWXt9fHblJ0jodoDyGZ2XOrhz3vVk591N8h2Wkn2x1dq1V8GXAOv10yDQbuJop59gIwg7txbjVjQlVoqjXVl9a4jqpgrn9Q8BegQC4V4PrP15ZUvm9VmPF/dO5sniKj3klfiFAS54I9uvj1u5aV8s7p15UpzHLWX0Dc04qeH5fmXbiLHEqml1fCUS61WGVyR8OoGB8SCkS1wZDQqBN1zczsP1E6nWj31vvsGZofpp9fWdeoBnW5o8unCgshTmI0leVxBszbi8YbTqdGoXGaVRaeZcn7FhVLGSn2vGW8koOrfah29q9f3D8+PaqcHJ+V5rxyNRi9eu1RgHMExwfKNg9Pa0fm7G/X6u6PWFsRlIltoHtV3scd+iokSG6tOjU6nM7simog1vARlIMmQdoqAuBQX/H7391OWW8Mug+XV1e6wdZY+/qe5d0injkw+nBmcFkUMb79tCR2djRhNOs0uTcQCgghzuWb88uzm25PaI7R0mW4dvDurFIton+vx4T8q00F0YTSLXzwZyxNyNFgpHQJhpfJucbd0eNCKw680/l07rIzMEvbpICMnfRaVJeJEiljNvruPCZvAYjxhI2nxCWVyryHIXgzoJj/7UXfcOqskezWl6etTa+7/fXlsLChivBFB5kWQBaAi0zjBViJQKFmtUxtKIhWsnB3XWrFsQ6oel8rTIbG4Wy4Da5sCGTK559wXd5d2vymay20XAa/dYlEUnlXO3lXjjUbWU9sr7XoJ3m6itfKSr1elgsdpImCgFt/GY8JICwoelWRtyGaGLU4E2fq17qayztLVV2ZNn0qt8T19vgCQ4W3IIC0ZW08gPGV2OZ1AGIIs7NvQEikxWKmf15rxwp+O6uVgv00IPtt+ts1Gc7JM8Ca/6ZIpjGlRyOVyQogRcqlUKucIlut7rXzDc7q3X56HlpaiyRF5dUWjUpktFpXKZbG4fMlRgMzL8BDgIdFO+QEys3V4Qt27/r67stRR+vEvv45EADLnJLp5hAbItCTJIMiMeGBpygKQRZCTQcPn25Ax+5iwuVs6Pmi1oAzbzMkQZdvbLEtqHQ4ZRF6yQB4SAcOcY2HZbeIwWZ6dFYLl/aNaq3ZeLxen3X5KQbLkaNKHIDOrDAaVTqVBcWmkOQWvsDE0M2Z/7F++Z3ZG9C7d5H+7h5V1lD66vq4HyHTh/7F3djFtZFccV976uKr6XKlqtg+R2uetolatomo10tjSWBdmjMaR5wsZm5mxZwQjxjgeM2MPCahhWYqAZBbbIrEplSaxCDhGpE1EW9LguDRkszTRLllCorbbsPDUx95rstq0G2fxoyWfB7Dw2IM0P/3vuR/nf67c1phCiY9GKYqTPXEIWWLocjpDxkgoLf4MTPxjo5KX8Up2ebv6cmfn5d4GcsBgWbqU1xyHvSYDt1J583kyglMF2+aZfH5/P59norIkqdt7Lw93nlW3yyMFVIFCmyrMyVD+ByHr9MMJJoIMZOUElFWaVkvjKSO1nAl3dXUrw3dPnWg/uRaKH/57JhPuD3TErqRSxZJA4LgnwumcLvCAGPsgHQ4rCtQVf0DpztwY4zEGAzl7vHa/Wt3bEHI5OcoWOdMxDE3TDFY82tN+UyFJnAMEsAwjhU4/wuERV0fWanvVg5qp0qkUyOXijiXfWpzuJUNkp1/p7gxP3xiVcY6OQsgIHlheiy0Yy+Hu3u5Y7M4nJ9vHfVopvv8fsu98f8Cf/keKLZZUAACELHIEmTw6lUx2hzp9Pt8sGY5dHCsmGEzGgawbE+VyqSTKEAGCE1SVZljHcDTH1N+8GosO7eMUbSN/AlswTYehXAlfm5uAfwJMNJer6E4PPnQ5mewLx8jOEJmZDn8wRnCcF0GGA+Al+KhoLE8qXaHBWNfKz7/bfnKtEydO3e2OQcg6F5dvGiaEjEDmFJEeXdDxIBgbXUimM72kEu6OpReGEnGMkGVGhqNdrsJbcC7JACknSRAcVRU4zoybXAPIkICVeMjYJpxkClwBDpkyjmMwO3PhAJ3L2ZbDcfLQ1GI6newjyXQ6PQWFTOjxEgQRhZAFAYRM/Oih0kEOhgN/+Um7/LKV8v7Tvw8NIsiWPtIMkxOQy4leh0yIAKhltxaWlpLpWAztKo0BjsOsoshgFESLYB3HwKWKjdx/QF2lJMmmGlotiizrmFa5bHK2TesY8o6So64rW4JK0zThSXA6ER2dWoKRTi4toR15AYJLREXiCDJMZH93ZdZHLsB/96/tNf8Winfe+0NHGj4139JNTYOQUQBYR0pG8yoNR8bRyxCzhaWFW2MjEcGO6yIjQl0Si1QQE0WLtmk6bhRSIuQOzi+lBmf8MSDxEDK2wDB6wREJ4AJZZIuWykcZna/Q8bwGcgInE2NDlxdQXL4FkaY2N8s9r0PGpD7uD4QWziuBJ+3pZQvF9341E0pCyEKLMHMfj3MUHMV0VDxSX76HGkW57ujFixdlCkRs1RbiRRzP4sZcPpvlsyraU3QcLXUtCsdQKE1simkAGU1bZr3+HMipfEp2XVq3TNOyUsi4UXD28y6EDAPXZHkI3u3imCwDvGdzU4jjr0Fmaeu/DXQPTs4GnrRP+7RQ/OBvs12ZXp9/+qFmeHiK92BQqJD3cITjdA9BoHLLIEyegkF0Hpo4KinHMbYQhelUrkJbTsFkRVYUocIxTIJo0InJg3rzwivq17GQLlrKoblpAt6OpjnkNyvxFpZI4Il6hSeBCov1Hl3XjyrZkeExfDG3PN2rxBRl5sG7bTu81okf3ZvtmvErHec/1gycDyJHu1dP9ZWT9VeG1h7P1/0I0RWsGKGoSNyJ6xQ4KssU8f9xNfim/fWrIk5egOoXp4HrRlNM3THbU++h+Q3nbM//dUBEkCXJUEwZnnlwul3i21KQ9c+GlN7z619Dhn17NyVCd+Aw6Wgai+w5Cazua4DjDSE7egtdg3l4m+ZKBquhsJpp3ITj+eUwGeoLhYYfnGyb+rdO/PSe0j8TCnUkm4PMQ2+WTVMzEgCOmZUjA2MUYoPPojeEvRL+AAAgAElEQVReObgAZOXp4qyB5hm0pznI1tPdoT7/sPLgZPscRuvEL+4Nnx1WQuTKeqopyPhKRSgYrAwzK6leNIeSrrdBhr6VQJcBLm5LOTfBspxdaapzE57Irw+GSdLnUx78rL3k3zpx6p7f9xuy48bii2Yh27QxhkBHLzQNB6hWsm5ZhzeCDL6Fit0oAAp5FnddOcpEmofsdmw6lJmFw+V777SfXcvEj+8qvq7uDqhkEyJqKIIdE7JIpGRoKWYsweb35xJZOojzBDLLfgtkHoLOZr0l2dnPFzEgRwtGPM41CdnN9Hky4wsEFtv7Sq0E2ROfr0uBkL2YawYytH5vsHqPl88WnWIxi3l59GGxUbUSzooi1LFgkC9CuNbi/EgwW4RpGdtU4k8gyIYzZwOBpfaxxRaKd+/6fP1KR2axOcgwghE9vGWaG2ubFdpgozyOdpfeBhlOUHzWO15IWfZmecMsrwlqoUEtcGPI8oOTM5mz/YHFM20b7JaJE6hUqf8s2dcsZEB27Y3tvWr1YLtc1qCYeYPg7UoGUzLgFRknb5a37x+go0Kq+3p7sONBNjU5jSBb+nt7h7xl4junEWSo4K1JyHApa9aeHj7f+eLx3vbExLhH5gFqYSMSHg9BEHi9X+HRjgHaP0CQAUAFrzETExt7j58dPj98ur2WxUFTkGH5/anJMNkfCCTbkLUaZEom9hBChnoN4sdWsuzGwRdf7u7uQlxe7NfmCpQEKC/LRHidQx52cZ7X9Qj8zRARneZYMQokyjJqtRdP//X80e7ulzsHtWITSlZfhkNKNgkh87Uha6WAw6Vf8ZM3Vl5oIiFJ1HGVDMPdierO1tWB1X/Ob+28rB7UrJwrjYyP96h0zzhqZGPD1KsMX5hWnBZUbUKU3UJtr/r+4fPdD1evX/3wUXUf0PQxboTMkY/mp5hz887ileH+gH/lTLuIvHXil1DJFH+m7yvIwDGXMDxqdq268+erVy/8+txnW58fvl+9X1ujsxE97o3AGWcxSuRyEkHpGFMs6qpKS252bbtWfXr4+dZnA6vX65DNUSrhaQIyDNNu3lm50hUIkMn27LKlZped/k4l1PG6kh0jU/JEeuwNpGSXLiAD2PmtR4cvYXK2UY4XswREVZZlNyfBnzJERM7qQmUEtTGBiA1cWB0Y+OOn8/OPHu+P2JHmIJu4DZXMHwhkVs6018laCLInChwvO8hPIGQYoCgsymIE+NZH70nQKoLs0nUE2aXVcxCznWePD2oba6qdkyS53jUVNeV13SzPlda2Yba/82hrfvXc9Qt/Grjw6dV5OFxGGjQwaQjZ3O3e/7J3bqFtpFccp2+F0lLoe6B0KWyg+1bYvpSyUIJAEswwljJTabA9o0GWY8+MhGR0j2RJdiZCliJtiC07crJexbKM7XHSXGwr2yaWkzi+sFl3HW+I5MvGUNsb4sSX4iTQ841KaftS51Gggy1LI2ML5sf/f873zZwT9tA4bvd/WoOseuLkY46MUObOyb8qkEF1iYrM/w8Z22FI7b5ekmQZQZYG2JJL66s7a/OLKyvT4yG1SxDUgkBgxPkLqZWFxRendjYBMUlpeZ1zyqV0cn13AOuwfaCSXdaHRTOJ103WtpWqKP7wGLyS1HVOPmxDa/LHhsxlOp/a3V6SS0UpmwUpk0uylNtY3kSczb9YWFycS023T0/PzUGurzRlWdrIFUoluQBmmZ0plrIbmwsDmuPsXf43ZKRH1JEZ+42PaxvkVRM//fU/OLM50+mYfXin75q6/vSxIfva1Pfi5SupWIxls04kZjI4Z2xro7y5uv39y7Vn8y8g5hFg26ub5Y1kzumD3ykpDY2dvlJ2aXWhzTVh+CDING23rPfsJED29KNaH7zqiRM/XNRHSMrRcz3QNzhI9LccE7Jmm6FxYW3ZV5ScadTNGiEEnllEnC0tL6+vvt7e2dkBvtaXl0aSsaKEOnimoUyIFWNyNlZ0Lu0spBo+UMk0A7cyogUnSU/tythqil9+N6nnzJQjc7GtrcXFHhsypsMwtvJsPVeMOX2Vjv7ZrC8tSXJRkpy5ZDI58mBk5MEDeJIsSEVlnlwaSZ4TKJNzqIfnqcVU/ANzMgSZxUIaAbLaNf5VFL/6ZNKuJx0Oq79t4KxKqz62khnYMSgvNwAvCXwSyPIpHf2zhVx2Bky0VIRv9AAByb6vhAYqZZXZEpLslGLl9fm5VPC86YMg8w7cws9FcCPpf3SyduqqJ37y2SzYpWOI9t9paxnUYsdWMhPbkNrd+RNAJsuoi7UvpoyOiEnOQsEnx2SUqmWBuxgaJ+eTlEk3Ugx5ZqkE5lpe3b0gNJhMmv+52eTft6woO5/Yf0KmUXmvfmu8p8eN+huPawOWqih+/vFTdDkzR2butF1zMyaVV9PgJULopjSVV1CphEEXOvGV0c0GmxtTY2gBTIUZeGx84dSrrZiEfFAZ5oVmJRXS0sxMVjHGXC4HP3xI5pCGVRiTUYWQnUmWdxbYsYCBRRvoLgxjWdbACgK8Yl0uQyjkdjU3G9RaYEvwEhiB8SrW7W4fH/4yc4/jcHrySW3qZRXFj09+Yx0asuf1sw8H+trbGTXPC4GGZu14i1bD87zG0MxoKgurLM/abE1aDSZ40Y28odaJ84vzm2XUCRul/ZU5I4BbbMuJIEPz45RJhehtOIw0TVLGF/pi2ZmNzWeLmBDQsjxPsGi6jgEYU26Ys6Ehcc0M6lDAhHivV+MlvF5VfX0o1H77dvTcLPVnu/nz2e9q8yKqKX73nHMMRfL6ob9fHWxvucDHg1EUwfiYIGCElmliGNAyBJnX5Ta5m0JKFwuVqh/rN7Tv7rwqyoWcMmBJqszzAtuMFdLpSjFZgMNoeipatnBW5haiJ77c0vb83IXGxg4CXJFpMjVrtdrm9vHxcYbhNRqCqG9qgv/qxXhhDH2crmgQPk3j2RSCzC6a6dnaNYtVtVB24rnFMaS3R4a+DARa+Pjdrkv5mzf84XBvIhofq29mbIxywlWgObypyXTaoBbUWoyxua/1938N9eVWES2BVZIyRBHoVVGSoZZMZ9PoKFrZQMk/ehetkMFXuphbf7lyrTEwONHR5GUYLcvyXkHdfptx21C5SagJlnUJmMAHo4l8OBz2hz29dy8PB1Jd1CwZsZOOp5/VdpWqKX77pNvhMNvJoW/bAoHo3ZuWbkvYb7ZmRNGDGusYTJWhgDYTqwLTMqCJzazaYLKdPdtgm5h+sf0KrfgrKZdPQSyrCFdMSvt8FbssFGSgDNWfSvigupQ3Vufn+gOB0xOtIYZRYyov+C8GSZeJadZiAqRg6nrw7XjXpbAoikrzbdFyqevynQTXQ+rqyJ5HtQX/qoqf/X7S6NDr8aGLw8PX8x6L1UpTNEVRNCf6b+ajcQwZJmTiIcHbgvHxeJyP85iaMLQ0Xmid6FhZ23wgpSsypjAFyOW29t7ubW35lNWzma09eA7lgAQSBk4JXinLBRAyk9Cgbu1gQL1CQmNgDAINiKv0zejnMa83CIh1W8wUraMpHc5xGSpxPUFadWQdefHxb2rtPKuqvPzoGyNJAmSfX09cClto3IjraCOcWFrf6fd7EnGtl0W9FAmtCtwLddyBfA3DML7/dH1r/xxIWbGECkslq0fb5cny+8P9/bdbaG0/BrztH77dKyf/teCP1K5YQmPHbWPC6Ki7nTGoNGPBYci77gajQR7o0rKgm/xYsDcsWjI0BBBP4aSO485FKCunA8q++qHWOaqq4kcnH1kRZA6655wochSO4zRl0dNm3ErR5p4ziTjk4TxB8PFol0f0Q7YmXuqNxnli9EprQ2Pf4tpmsqQwJiu7Rlt7gNjBwdHh3hYc8ZXf7x8dvdsHZXNKCmVofym5/HKFaWhTT3T0nVVjQrAr78mL4XDEnugCzNQm9203jxjrhI9C0zhH63S4jqT0PRazjgJVI//2x9p1sdUVJ55cJOlOms5k9GYODVIi6/Qe0R4hrTicUWN3b1zwqjE+CmddzFgs1s5MNwhcFz96xRC4Oji9uLMRQ1k9GlLiA+E63D86uH//zbu35Ww6nds7PJqamjp4d/h+r6xsokOiBqXl7oot1UZMjF4NEPGufNhvsUREfSaTiQBmBOG6zUbzN+xnSByFGcivI0mdPsKJ5jp7D4mbH9U6YVRZ/OKTpyTdA+k0+NIZymjE6+weT8QOHqUjdTpddz4R1KriwJglQ1IkTcODRbTbu4JXDH2pBn7g2etXkHnFinJ6Bpnj0cGbL+7f/+Jg/315Jld++w6Iuz/15giJGZSVaL12afXZim0wcG20lbjaEOzNhy3IEM0kjZNcJNwbxFpcQc9NP0fROK2LkBFI/evgo+j1XIRWWo+an9c2laotKfv0aR39F30djusiNAmSwYVvihbFmTiO0lOimIiD3NyIgJNarUYIeKdTDN+NG7QtamJwYW19JDeD5j0rjL2ZmkJYTYFhlsEsD4A49BLEDAxUis2UR9a/X5juTwn9Nm0jZF43RYpEfxSnjaCcFos/ER3+J3vn/9rGecfxn7YVysbYf1Ca5IdBfxwkjI1sbX8QnAUndHfcIR2STzpOjyXfN6wyn45zTtJjeRaVlFhBMjL2Ygd7VlkUz9bUzCgmCaVpnMVOmjUJCYO2I1qb1RteE5ulzj6PnOxvsEGPzmDJ4mx4Xn6/35/nefQ8+ZqzElfAKUWek0l9KRsGy2KoRrqQVR/1Itkha68dvceKZYPhfQY2DGBsKFWJ58CUhDjWV7IIerlUqDezoi/pkzHomI81BBktN9vm6OAFdeTWrW8++gOB7P2/ER2bnV1dhWt1Gyzyv98+BeLIK6tgoEDZ+1999Onvn/x7PeNpjF8yR065dfBgqDXYIOR7WQaiMdJX/lhyqlgh55Io5DgvgZcVnogqB0qWHSsnjdu9bYkPXSj7p8PJBsfyGPMsD7nIdaHYg47OGRCVEKfoqRTEchCyoCzAz2VekDnlSrbeLoZUbX5q/e9P/vXFby/+hujWdle4ulhtP/32+b51kmegZaBtFy+e+ezrm/dnVLoxbpojH5SyiMO8jwgZCwQrisLDhTnEyQz8LQZymrU2GfJP6QpEf4NlOMzg6z//Xq/XDll7890mx/BrORZjAfJ/xU14owHVrQwhBAjkWIWkIR0ghCAugrYgjBlZEXC24mrhxEKYWr/55PMzF/9DvBEka/YqAW0W5Gy2e13tPghtz599debTrx/MkU8xLYxHA54Cr4icyEO9CEYI9yRy5YMv0DSGA7dOZeuFoppIhPztOmYFkWUYwCy7c6w3SnbI2vd/9vblZLK8BiGbE8RpVPrAGxuActItpKpynJNFLGDc5U/kUJWcRTkkM6whyk62UAwntIXE/C2g7AsoJJ++tMrVLmGzs9vk6j6H7wC059999uTm/bQU0VQtKnndlAHkwn1lLo4dDsnAEA85TMRYZln4bU49r6mq7aE8bgVzosiMrZXF3NmNkz9+rbcw9vDksdffOHH0+MPFxcWkzLOkH2W5oHnM6IyfbgBlKEekRgT9EqHnFT2bKlX0ZhYxgsAIaLmW70toVjoWWL/55effkdDfNcfuY/v/jO0DR2DrPPvy5v3NzZZpq3aEotuOIrDggrKO9BLcWEdxkQXIeCxCbWEglMqTndYDkYjdqGGoROJjY5OcjP56/K2TJ4/9pLfK/1C010/8+vajO8tngTEeE8gg0g+5iQEpMEMmDxuFut71M9JA0BRyTAhhr6qQmSfZqdca8wnLivwucP8v3zx7/hKyfaQIXbP7bvnqlU5nd2t9fHw0amZUW1Xz9aog+nw8OVGnVrSLhRWdiwNkkMWwSMZJKnk6NBOKxWIDIbqGZVHgxpDODeH45es7D2/84qdv9jYnPvgy9saRjXvLzWYFgrfIDPFgUIaRc/IJUwpForHAAOWWUrIgYBKVQHBy1ZpLeWmgIdudGJhG2WY+nPBKJh0w17d2XnQ6BKb9SEbYunqVQLfPHRDXebG7NdffeK9fMqNR27YLjgxVpU/BUEIQ6LRCVhdkESDj2KBPdlYKoGPR2JJpkvPqOBmSGiAGjZOnc8r0vesP3urtunLQs9ixt3c+WSzLMuNLJpO5MZbYJTZQQRuXIhmztWll6HwphxBYGjAlyCjlztAeCEnFii4IhA7ZKWmJxJI1tTQ6ePrcxt5LzGa7Q2Wv2r5ZEsQ2gLHwqVP9ZFGHmnBTuiiQwTG92S7Stl+l1XYW8UTJOCGoVHVyLEk0CrIXm6EbFSQoGJfL4OcoVxbh/0LRm4/e6e2IcaDbD4+9e7ecLCchcRmKPHn2LMt3MxkuNZYkFSBrtSy1ka84UEuSswh5hEpFKxCTIipdgFqTJdE8Wyl6ElJ6Kt0avBDqf7yxu4/Zahe0rpLtI9bp7O1tbK23Wun5sBaRMlKUbhTAAAEWHoSsqPZ5vQFazTcdzuhCZqBUzVVpy2pFTcmr2vkhmRcFXF4UxbG1K1cUcFWGiTs33uktXjzQAxe/vCMH+e5kkgIWNDmmdKtLYTqVp201E7Falql6GgWI+TnRJ/owFJN9XrK0zO91r+hQYLK8iPRCI7SUTk9NzdOUOjK39Xh37wWA1tl+1YCvTufF3t7H5yaubW6mp6TRS5eGIWZ5iyVyDLTIclUoIWnP6SUrQBdrWTIpznJc1ank/ZQVtTIZk6w4KyHRx2IsJhmGG6sihBVFCLKs8+hIb6r84LYfHbmD+SA/hIEVDJDFBY4TADJIWgXVq1kmwcljq4121oEOFhWUrbsJr2maUsDbVxhCZDqRVVDF7fMEosPptLVkRqwJwOzh7h7xzU7neeclYLsbj7eujY9eGhwI98cAMtWKSWp+xYDbGgpyakXKTiS0hahFF7IGgYzhlusFOhQjW+mplORR3brTnWPiWYbBGOlDK0NYnyyzTPPR0d7yxYPafnDyxp/5YFl3QJGg2ziFJHtil8EgquRVOxOQhodpr6Z63YqOIDv5HICM0iKEMj8FqYwMnfIc0smb/apGDbc2N01THbgGoG1t7L5qOxtbW7fWJ+aXxmcuDI6qngQ16AfDDBXbGExYNATdKRRpzZNYWGhFQ/kmBmdmFVyHmDYQjVoBVbMzwzPtpkzqUK47HFs2lHicW8OCb5q/cvdB73NLB3bw4vhdYGztfHYsNzk5uVZOJoOsQAbVg6KxXCuGNFWjqUgksORp5FNIAfbIyb2a5o1JLUjtxRKZ5wEwDafd0Egx4PdHN6+1TEpqWen0xNzcexOn509fmxiZmBtJW5Dvpqb6KeqC3x8+9eEpbSbjdWsIKkuQT5xyVb+WCPeHJXMpv4x9RCD1musJBUwzCpBpw3S72bVRHq+VFSW3uDhtKGuXGUYWy4uf7PyqN152QNuJ21WB5xXZyZ7/04fnPv7H+RQCaSLFnszJer2h2jYlhTPQ+V611sRiMCmguhrymyZomW0nik1dEdigj4xi9IHehUIDwxkpEo1FJClD9dm2TduUHfJS8F7NGrYylqV5PH5atTUt4fXbag1SHc9hVHVqjT4bYhfVFzOpfFNQpgUO1SH0z6j/Y+8KXhvHzvil7antofTcy7KFOXT/hLJd2INAEkjY0krYxo4sIT1FvCeJ2GBJKFEk1WEEtsNMiI0nCSEhZp2D8SSeCQPemdDDTPcyQ5lhKOwf0EPvPfZ7mS3t0k736oO/i40NVuD98vv9vu9973uOM5n/qTMRknHs0T/NKyPX3Tt/+/LF5dHf3sryNYLM5f1na++/omp571X3oVeWuvH50c3pWfvyqBe6hmeqKrgk1XCXfQcLFkCj0XD42fiq2qqq7rRfB7FsNkkTRyfL7FhVRNEbxYMZgIzvgLx2OpbGf39H5odbK79/D6+6XqFn6SJ4m1ZYnIRutywDjw33ChIxYP8YTtejXgyKqG65A9wEkDFCJ510uGKaGYBnSTXlLA6fXJ5CnO0cjY6vkVpdn/Nd3RrZvb/UWrIsjeInO2ftdntjo18cZvEQebkC2SZaLGc8r+la4DQIExUZ6GVNnhasbnc6FY7BEZO4Q2CXmrJH9xc5vunbHbDzGoDsf481AOnDd8c3CWFpbTVDag10MR8OEofR4csmAW3sIcCYAdlEiS0FDB2aMGv0x1fxNd3SVHM3OyxmG+32zk27ffN8GCK1VUN/X1/iu5rx0y++UVpyuTY8OAKEPaJYIv3eOHSRQU9tmGG2JHNda2qNBmHhG9cDHQ0H2NZsS9dScON4gJBcUyUFxYPLiEk1ywosm/vvm1H/NTvDp3VV+8PIC1JMYw+8l2K6095sH+sgpiWi631aqQBd7mEWlDnQWKHRuBzHrqFKqmQMs/BJgfedCWnA/8XZS7S1pbYejtZtsisav/7imSiWt7oH727aO87+bqMTOUI/6Y2zXFbFak0dLnr9QAu0eoPhIyEJESije4gr9bqlB5rAzklvmtFqak1Bbg8LvG0FmvXxMcNcajf1oAmamnIsPSWC7toQzXh8SSLW9yuYqnCRHcPD0bgv1OvNp7pml2aXAGaV7jkobjgoZjtEqN/Xdy8eAciG0+tyq3r83afr9VzJ+BUwmXQHshftWRpoT+dznmfZGT0tAqQlVr3htOjMNU1oNH3Nwb0Qecbwul/CX9GBGBrLk2S8yIzjahWc+mFyEoEeUpCRjw8CinTfT0FRGQcvFzGSaqKiiNlyFmFa4gWCq5d6sVerGmHBVEqlphW8YbhkMDIUYNcRcg97CSaTyAI+9Cft9unLZ9Otcqt1/O0aZKsZP7/3XhQNANnbxzsbG8BYQRD4Oivgfm9rqG5WRVp7XeKIFwj2fZvmd8amNxwn2KlXLM3HQsRQP07rqTXJHd/5Kk2zmY+CDHhKTzXfSk8EoVgsctOjh91MAA7DV+Y2+LVIWE7B50l54dj3AbP3tSZOBq5RkzxTHmbjghDOcexA/6NuOzs3p++yxeFmtTX67vP1eq5mfPpKKW+WW7cH55cbGxfWbprONV23AWUFrKssmh7KFkuBOwGa8e37tC0HqQbgTgCKAZAxjNBfgrGqKaIk0dIpiSo/AjKip5ZF4Zn0MjdXRerwtwosELZZ4THGTjKg2MsPE06DZ9rNEpOMw03VNE0ULwaJQCLHSQO9WfFPyIOdF+9GWViuPlwf9F3Z+O0/nt1e563b0fDx5fZGYwJMZtm6XhLqXHKYuSjPZRSHQB4MzwWaxuKei0x1eEi7COmGE0cmTn8c5zXpzllNixlH7B8FmW5jSE17kF9sSp7SRZBK8BHDCgzGHJ4NZCR3h2GvwQDINL6E4QHPZJWeJYGkkkQkatDBZVpKyHb76Pygi1xTab36/brfZ0Xjk8/eH1ybrZrY3Xv8ot3evjhheMv3m4ThGjPw9K6sqh5gqsRFoJe6zfUPXVM1gXpIXbOCps2czHFvimRJqdVyhAYJYYT/CzLc8VPtRHBIERqorNY82c1AfgFiPM/MZs5seX2M4LNBn/KV5ZMItJL2XhhAqX02YpwgSFk2ZS4uNra3j86vPDVH5bL37e/WrYurWsO49/Yqh0xOVEZ7T17cPHBKXwls0w/sAHCAi3F4NxQDjQtfEDr6mwqLB7mhisfDsCixmgaKWYkIZH5dGThPEY2w1+cZLaXzGT8SOPDTFBMQ3oVsSPQoUjaFtDS1eY4R8Gy2XChV03CniRA15sE8FfqDnNbSzHw6LjCbaru7u3O2RBob7dObo8OD2DSf53J5+Hpdi13V+MkfXl7RLgzRU5+fnx+dXmBCWN62KvoJhnVMxq4p0u5Uul8Z6aCjOAmReazkoIyMbVkdf+4LjWILGbIsS1UPBI3wYNS4f9/I9YOSGcsAIdK2jn4vQ1uSolRVLx4nHGsDYPGM9MeLhQLpxmKMuRMyD3QeVNWURPBj4RKXSqUK3ZkCLmvstNs3jxfxnqt4ozz3Rq8/Wa/misYv773+c36t0N3oWvfg/OXp2elkAgmm/9XdFvac9MKR2ALFvAU3xFuaFjkF8uicsCwr+tFk96nu1+uzXoy6kCVKZUSxQCIb3JTfbGI6irHzg0vsZwz9lf1ksFmtbZmKItaMsNhP013/6VPagRvGrryFwN83OFDLtNRfZkgVa3F8mOh+pQTIZ539dPfRo7P25bvbrqgorZHr5q3nrz9fy+Vqxs8+/+vXxyiXAGSKpHYPrs6Pzh5sX8zB+1dIY6cRCf3iNh/RRlmgKEabQ0KZjJEplQ3kZkt8MX+j+SUePgNdVaVyWaYj84ToJKhoViclHy4t+U+QNZssc9eVaIqS50FOarqD/n56MQl2tQgc/ubmpiHnYW/Ggfna7UDq6nZrpkEH8QFoMXEYcnExf/TgrP343O1WRVFqdd3crH79zZdrvVzJ+MVvvnzllV354V1yqBqjvXjv3c7p9vYk0IJKpVkhAkOKwR7q3qKrKaBM1/1I+Cd719KiyHqGyS6L5C8cOIscSH5BQpiQAyeLgqqCKryMhUprXSjLrqmvSlSwLLxVFSUtWDataNOtMrTYdAtT2N22MmDa4SyGyWrSzBACWYdZDNmeZd7PybkEApOlC9+FC9GqzcP7PO+9da1EYrKkvLyup1U+nosfMFq9XzE4NhaORXU8ykQRIt7++T+qS3GBsFCwvsaDTiwbMwZ5cFqqqtbMOUG1ygO8ZcOA7wirxM8bVHtxq0cB0MColhXSBHUObGmb1RlOF0sjg00mCqwLqrLw8N03e8LcydjyyaMcvstLXRYXd7gRy8kj5X64Kp5U7cZbsNzYsqh651pvenjPjsrjHJgGbshIsIahtwN0zDwVsgekti5v1VssvG2dPbayIignnOMg/ivSpHibwDVQBw8Jx5KxAX6qqo2DIEUgdF3xIqMEO8q3rBAv8scpH2c5DhUAnQXPYRjEN8zG9LhY7+TzHG7w5zDIYvDmCPvu4745dgftZ3/8yygczpf1wqkread4W2YkmexN7jfPi8UpDyATMmLOpqK5vsUAACAASURBVP112XvFSXonYIiMmJ37fVeRcbWyjYSj0EE2LmazfqcsyTGWxYt+QMlrFngyiAu2e9l/AjKGF2jUzg8MLMcSEck5awUWXhWbgk+0AHcY4WS34x+IvIlLVsZhVMrftX01yxNBKtXgTTNdDYbNCN41xHUNz1MKshuVWYhsH/fNsbuo+n/7MhEL62W323t36/SaPcXAS5uUSvNmc1GsmksxczRf5jJzf91URgnFOfMZEFXH1vrMcSRPcVpqPKMxWYAjT0IgiqcwOS5mSHi5GJ8xM7hCiawfQcYQhA3Uejdik2yMi0EwumhpTAhZIdDztI3aTkVSBk7bD4nLZYYEDpY5Cc/EqbTNZ9B2gqBaG05uRyw7Ml71BpXbSa/XqyhRYN5w5d03+6UFO2dffhwlEizo5tMPrzerzXAycXqOI8vGm4f3m1UxXT2mGX4JUAOCc0eJpFuuo8BCOBo4WzjlfjuweB4h3lwueRO1ABIRIEGW9ZTtwrzxXMDdY9r3IBMImhBUq96X2EIi4XLSaACxA1CwDY+EUIOf4/Vni+v1WBDfvl0eBR3PcCWl3ApSGjlf8nOzUZ2nZze9N92kZ5w2e5PJzXC12tw7TrM7ioXd3h/2fLlz9rvvEonCVUFxmquLC9yzGAwni4UrcVz3E8yKqfE4t+R5kEytV0kPNL2PLAtgZvl1MMCYiEFmL5dx2sKzmYdcJLkdzdTXmsXg2oFpCj+ATCCEMa5DynjZnSsritMOmDj2dhC4goDLMn69Vfd9IQ5Mzc/r5cEId6khZI1zWOBlQb2tJ71u9+phgvvFZ6vnF3iMYDipPLDhsMLu75PsnP3iV4/h5NVVwSgPi+dgtfNasTa8KSsVr1sonPbeD1cIUXSJFzVLDVqd8uL22qc0SwtBNMCQDG3RtJgjEJXZtuhQGGUKxyVYLiYpfVzFpDOiWQqh/1AleDIgy46jy3jV3aHrLNozEsJQnmAQEcdRAsNowL4H4NWWyxzTWrx0+m2fokhavFRViHTV2bUzGHjdq9vF/c2qVqwW0+na82LQf/nQDR/q+6V4O5jt//1jNOqdsnL5n0XTbDSqjWq1WKzNbpxKkmM9r9ns14PUnBFMoD6kBuv1ug4aPRQnUEq1aTOb5ekSiRNhpZImaASFWouKG8EbOblo+awOJKj9BGQ0gUEGQJQ42YjJEvwksMYEjlcZRIbEuBgfjxnL5CktZ/KmSPr4hUgNlfi4iaeYgKT7AyOJx6ru72e16sl0OiUs+/zkuD24KsTCp8a+zX/3QPbrx/6tbrCxyr8uQqLJN/jpeS1dvHi+uQGohA9dpXK99inLIgSeBowwpXEWVJUp8nZKNYEpcwytMrZNEZjQxgQAsHWtyxhlnNx01ohCGrDlJ5CRJNBlSWDuXEWPulJMVqL9ekoFnuQpgsSzdNsRE4IW3xKaphHMARnSQiGGyIJXW9opFLTa5cooUSgYp69uVml1OrXHpiiE6POTeWd0dRUJe6d//WK/FW/H7OdfP+adaDiRePk6jbfm4JIgoQXnJ8XVTcdRDJk7rOhnLUTbOXF+JAj2EWHbdlzIZW1ElkwxE4/ThAYgw9NHgkDbJE7U6tEIm2ANWe/7FIMAZJeIwP6OFISxoLUGEr5fE+Ekp1NXKRWRgv0JZEw2K9AERYsigMxCAu4uO6CPbXP5dslbzKzdlxSZ6572+vfDoDpNp5F9lNVCGtM4n93hYxIRz/j7l/s7vrtmv3mMyuFY4qrb94+n6fnx/Kn24sWL3LIBMHv9/k2BjcgQ3LV98C/mkicphvmUwac+jbeVKAo3W3yf08czbimt7VQ8vHcfp9V8hjRzIPifgjdTS7alMX5nJOu6m2STysSfb6+n4kf+cEOVwRcvf8zcMqn0tNGAV2v1DsfKstfs3X4Y1kCKqaptl0oMUhH6tvi6YORdiY0O/rRvKds5++LjJAxu56pbXl9W05fVhonPTuZEs1Etrjb3vYFncG4F1FVqnjIvmc9e8S2JFu2fVaQox8WSkt6va1YJg4zEIEM2oKztypyuS8mkcdfSiM9fhCYRYUJcoLX6eVnS3UFlMpzV0tMpYii+xJvT48tg+u3mfUI+dFn27m9P9jfjdi8Z++QxwrIQSEq3H1Ynxct0o2Ha/LNnIU2d1orFzf2tJw0UVz/Di4cPyM+fis5oFoP7XaPJCCsr1y2L2Hqy7BZkECD6HZxdBVdmDDrBXPg8yoA5Q0TIb/XhL5JTKd8AxNKpy1ToWSie4RumeXl+Mnz/54LXdBNG5R/7c167Z7/86uOAjbn5KKv07jcAq/PzRqPx9IUAhofNnr/uDwavHgZKZ5ZS1f8DZLncWKu3dV3hIklQXWegrXIEDSDTCFB8/2bvfEIUx7M4ftq97B4Gds8DCzMLu7B7W5iBnYEd5hKIQiTGUqKUiZEYO5OoqGAUE/OnDCOUJRpUyj9ISYIltKitJYJYRR+qa+Yy0/TQDPR56cMw1z7u71fN7h61bx58B49e8uG9932/96fAV5oc3DNsGIl0hXendiLmwkgBB34sX2zdlYvz665MUQqlaTS88EtrklOvD7rD7QMIoxmPZ37swzhE+92XLY+Hy/uCwcbWnN0qCtVRZRE/Yc5SJK3Wrwbj2bBc3pr5CvBEuyGLpWII/jhMGQgQcJVsCcX6j5DhrqnEF8SLIgePQRiJ/LlQo/eAjIkBJ1i9aJmWZS67Y0q2eZtX47BySyM8Jcvjt4teJmMAyPzEq6+Pl5YOsYjxyZoIcgsAWSjTg19RkYGnUFV4cpBRKTubVbpL01rPNyDR3g0Zk6JPcWwCV74GksmkrldElxDR4vQJ7kIk3lVtFuEKbcPQr0sIQsdyu7G9SSH8eDkfWsPZ2K7Zmgx7O6bxmq0CfZkdL/V5ggh6fJY58ifvj3sKDtF+85e132Pm07DJP1C24EtNWK53JGn6bYwUIoVwB2I2u150c6q0GzIXLZERtFC6BpB5elziegMgc9A4SeIIIk0BZFEv4fcTRvFSQCOPN813/CN584NmK7MFXDkkA6VpqzXboRCx06nDqrHJccmA1+P3Fc2Rp/fdEbJDtH/83CY8ATPt8bCsz2jpuj6cdbP1et12HKHfx1FVtWWZmii2DSDbSVmOjtE4jlUvuUDIE4yCpGziwiIpGj/BkZykuStNNgQY85f1DebWdjOGuCI3kmRTirJSsoOOAFSJJHUciocV4+7bebHVLpfZfNLPJoxGiH3x9fF9/PDst5++aftBit5mE7rZHA4BZLoJoubqCvgJMQyU3VTVbNEBcUqScq7drixH0ySOgtTLBy+yGnpzIgoITWMgXOZoja/k4bsmIFovoacucXcNwxW/UTUJck7JioMxkmprYUrOUnAv2XAIEjXTzC/mPe8TrhwMHJctHqL98++vDTYUzDQSi+UYRJ/Zcri2tgkLSM3BVV3mcwLQhNOp5IiOZPMYiuwRMEkcw86LLFxb4IOQiUiMgZDRALINRwQfIcuXTlCxsAdkLpKMpUCe3+dl2d1HY2q49pyazJrF4tw0LXM2ux1kN28fGk+4RC9gvvjbseB/cPanX4ppzh8cZfIVOVsfDOCr5dZKEklr+PYeuDNVi6Px0ymIUY5tU9geZS0EI7H3kAVBpqTnS7CJ57+Q1TYtT9BIeoJsvopH9oEMQQQcat1vGRLDhRMyPn3eGS+Xw3na24rezbqDK2DfD34Ken0JLhldf3Hc6Hlw9ud3RPRaT45G5up7mdIQl6got7O5td22W60m0Jp1ECtzksRIEk/trpMhoiCmGLiZvwU8mQeuxK6ieA6N4ziKYbTbDTwZkTYAZNdVnHzsk90DMgCthEUiGKpptq10m6ZlWVvrFVCbWUqWFaVDy/cPITaR5szWlx8dP+qh2cfvgtH8Qrce7gZ1lY73v8FRWc7e3g/nPYKItuDiAlm2a1NGQ5A9irFIQShAyKoXUTbg8fvZVrOK47kILNvjADJ0o7PvIctXT2jXXpD9r93Rdap1lPGy9ZBpNNpbOCBal0AGyIexs1p3aAZ8iWLzCNkBFvw/fhcifPloL3q3qju2O5WKODZFXSndZYIzuFbLGo4dW3RpZJhHgCdDd0MmplLAk11wUcITZZOtZglDBJEHWkAM01KhkujB8TUPew1yMpe4P2QwDqPZ1WxYtKy2VTRn41W2bqfgBkiRH2RLz8qNQI+76311hOzwcrI37cBoFPL6G13gsSR1Sud4vuDUnoc3l0Bm3rXXizHF824MCEvA2R6QaTTDnE6ahs+f7CU57mJSiDOkG8fgoK5KVfQevJwK1GWl4EZ2Q/t/wjA3gOx+bZnttmU2u0qdmqSkGMPQSIH6dbVJRDOjTOBu/dkxJzs4T/aHn19nAGRPvMnmmKIcVb2RJKHP0KrNU5uhbm3bLzfjMIahGMqHI7uhEATYyoiW0kY5wCbLnAkgA6rBTcYxOqeqTvWyBedMPGXuUjgFEdC1N2RuNxYZ/7Te3q2tizElU0CQMCTJAMVayP56f/2MzYyCAf31v47q8uDso89eJEPwjHxUvwSfrqNKdBx/ip7QtCpnJ7PZXfHlEkDmuN2Ik3P2SPwjEg3UZUXnOBZe+c2fTwoMEzk5O4vQcXoq9S+LAXjHMqQ3BUxAtA+F7PUQpPsTuaaqDBOPTemYGlao+r9fLZ55g6OgMf/u8+M3PTz7/Me5nyB6PW+r2Oxm6x3VnuLA3FNVVbOy0u2OQbgsCLgLRUHQ3C0FU1qMxKrnCc7nS3NcQj/HSeas//TsjIyTDCOJ58UyESKIkJE+F92RD4AMHgKwV7ePj6tUWFKh4JVqigNfvV7NEz5ilAnmX3517Fk8QPvjJy99RPCh4X3GFfXu4CqriMDFCIKmqpJtU+HJJOziMS2CIWh4D8gQRmJwrAIP+ho+AFmzGmaY1DdPU2epSIqJpZBSPkrAa+Os0azyEfJDEn8Utet1WZZ5sUCpcAITli8G2dXylZXO+zKZoHfxy1+Ps70HWcT4ceFLNhosyxrF4fsujAkwcTq9UdWpbYs84j4hSRxFw/wekKF97aR6CbRlIOrzcemLCaVpCCagtFbgJa0/KeVb8D5YFF44n2AR5IPkpfSDqtJ9gUdESrMdh8oOBqv74dpi2bSvkQnob744OrKDtN9/+mYOVCSbJO4CXMtadrOKQlEU4qYjDNCDao2PAw3HkKiIIXuIwX4BbmGP+omA4X3C3XWVVaejKIptg1+HmiiTizbBGkAWeILPSgX8wyCL3UzpeAoBGoRSZRgpV7fLdatc/g971xfSRrrF70u3hXbLUvosiH9Awb4JFW+lre6DEIUMzkxmyAzNxAyzU7NmRjIBE0myJkMChW6LE5pQM4s0JKSBLk1MkMAa5T5skhdRUkTi89IH3/t4zxktdB/upfumJb8Jwxc15xPml/Pv+75zKIbWdWP/qLdl8bLi9mC3EpIZFptwEYkG1lrZ3MzPLywuOByrheD7vDuIJIv5fP+HZHPnsNkW12afVcMsz1Oqqmb2d6xln3Ns4RH1new+pSuKzvIUBJhrs7aLj/7NLP6PKNY2N49n5OC3vkIMc/3ZWiosLy0RhMYmaXX3YKy3ZfGyYvzxUdVPiarK8xxhpDofP25urr988u7dO8dLIfg+5gk+9Sza7Uiyc2BfpC9zXMCR1acIjA68v/5RTRNYQoo1Wvt7e39Z2Nr6Cy9w3D+AudQVXSL4evUXm3dtds765AW5LiawfSabzY4TzV0c27T6HDqWbbPe9xEBq67EZVoiKErTWF2pt0d6rXsvsS6bOdsluJYpkQzD0Ioer+SyO4HAy5gHC1L8tOJ84nDYfv753TJ4VTEvNt5a8y18hs83t+h0rnjgcv/kLAR2MLLkWZGk9WQyGY/Hq9W4IlcRlSq8DemaRkg8q9Ly29fP1uy/PYGPekAQrlt5XedAkvl8MPC6fKC8HAvLy7PLhbWF5XfLC25vZOPN1k4tJCd4ChfhU0mDo5TK2Wgv2X+pQ8yhw+MML5mmiDSjSDYVzpX3trYCkVih8B/v/NziomWn3KurQQg9kWZgS+HZ20HB2eacTrCnHvfKb+5ZV/TZK1VaYpOZBPhJEE2Ar4fl/XEg8ZTE8wmWklRRZFm40y9+WbM73Stuj8MGXLWvrvp8dpRuX7XbY9Y8Pp9j0T5vd3pta4WCb/1lJA+uWClby+kqZxg8fitY1pTiR9PDvf2Kl5xlo1NN07+0LTGGYWgapYqZRuPDn8CzLSGPOxbhAcdcMSzQ6XQ6wGQ5HE7ruBAg6F4JLrpj7vcxn1fwPXtdlUmSTjSKRQ3pRXAcp30B+LE/FA/5aYaHd8nXv9rt87iRyOWd94BGROEoHscOB7bIfOpe8TwFDYr/xeYmunZ7tWRCA7EmaEq/LjEEpxydTY73kheXHd+NDx4eHe8zyAiDJ5glUjLTrcaH8l6gFIVALgJu2mYQSLCIQQDcVpBfHry5Y8F1dyy2LuQFofTH22ocGMCrulbk/WImkUgYRrFYpJgLwEAJhUI0xfFgNbG6rE/wrnnzXiHmsRTi4vkk1hhJ/BRnWS8UCsJGJAJxw8ePnTrQk2MYEK7LMg1EPp162DOVV8Ixmxg86RqgIBhZIWlRJUlVDqfFZK5WCkSj0UAgsJV32J3z89ZhNLcHE+5BrATkXo+tBwuCSxB+L5WBY6jDCGoJ6zcClBDom2RDB/j9GFYqStEgSRJPreshfzj86nlJEKLRfMTtOYelIUG8BycKxqw0igCxJPxR9tWreCrVyMD3gGN1oCxBLqWa7ZPJ/l5t9atiMx9OdVscQYaqCYNXWSwlG8I9/7lKrrSzE3jzJuISwDP3xmLArSDEkV7vrFcQBNcm7sAHImbLyUpcAb1V5GlgFHr5/pAiw6XoIA05JsM7sKOMJGnFhlJ9i0dXshEBKBzwWi0gXJiNs8Viq8FgTMjnvV6rtU0kWipl31bi2BuR4nmVYkVdhiFn1k+nZvp7mYurg+8Hxu4fNCtvURmZGmYakvG0Cl56KhWP10o7pZKwsRGJ4kOPgIlDuPL5vCsSjW4IJaCYnFKXOFMzOFqpdDqpdFoUTUqiGJIiEJRJQAxgNuq7ACOT2VdkQlWTeKASNWUEz+2C3YSgUtjEOQJCYGMjgOun5VylUomn0DQShEkt6eFXfpLhzFbzZHK85/BfLdy4PfHgsHncamksuGccwRpg+RiJTsjpeDJerZWz8MSjgY03bwQrCvT97hJeChvAg3KtkpJVQzMZkqHoytHJ45F7Bwef2u1us9lBUu02O50uon0yPTI0ctjxS4TE8hSdSIYrORC8B3IDqBAtwBgzt9m9UjleiefA4jYMcPAS6NRRKklv01R69+Deo75rvad2BY1m38i9br2eIDEuRBcNG4SzjKrvy+lKOFUBQpTLf2bLr19YqL14/rxcQ6salsFLgqiPYrarpw+G7177d3/f8MTE6NjYzMwkYGZoaGx0dGJiuP/md//64eFhVWQs6bjIlEyGwzmgcLl2IbUGtC1na6C/Kvr+fiojJ1iW55O5XJKGTzBssn7cPHg8Ot7z968org08enxyelQXVY7BbjgI1VQxJaWKuiiHwym4wmEYpPEuZ9KynE7rNMsQvKFu+6ungwNfFNe5cePW9eu3bvx9NyGw7AjbhjE8T/O8JAHRwKePg8BwWMEp5HA9ncZTlenMfkZVCQJemdxukmf1xm7z08H04MTNXgWfK82z8bGpw+6uCX7UEk0Dt3hrP6tJSKDWVGCcKtESvFiJTSQymsbzIq0zKkXxDXE73B78iurAdx7+2C0SQFzSymxQBJ1URBBIY+KWVhRVVmFiRjVZwpRYlsYWdAwLDh5ldton9x/1XLGrj1s3+wanD9vNXRX3UVsdxjmeYUjS4gTcMdkO1GMonhKttky8CuxgGp3O2eBXbbi5MT75YxMVJIHOH8SbIk+RSygKZ5CAf8hrnmcTPMtSJE3SaFvTFTCTj/rv9Lbyfxux5q3bw5MPDrvFVgtUFEOYnMaruq5j71S/X9WwRiuL/QtZvwLemMppWkKvN8/uD3+tL363b2oXYgyO0wwQDAEDkFeSSLCeGItaCwRGkQMtKUqqyibMVv24e3h/rP9Obx//t8SzawN94J+dtTuVsGjFdRSFwYBW1DJovxhRBNYxFGdyFGi4TH23/WBs4OsToz/0P5o+O6r6UTtynCzrn5HJiNjrCSymLnHYWixc7zTbB9Mzo/23e3nXb49n1++O9409ODnrdjtp0YTnjeuPxaIGNpMmTfiBSGgG0i95/Onk3tjdf2THvr81MDZ1elQ1MV+SSJzryfMbvb3t94dCb3XONFOd9uHU5Gjfzd765DecPrszMDw0MnXS7jZ3j+stk1PRmoFJAxNZNIqtVKqONBjqv/nP1cx3A6MjILjVapkYZ6BQ4r/smc1uGzkSxy1168uSLMmyPmJHieI4sTxWEEt24hkngWcws3NoHkgssYdFH3jknhc8tB9CJwPbz6CDdMoth9zcWOwlCBAgGOQF9i222PLa/aVImcnBntRPQOCoKbJY/LNYxf7r3/7+j3/qOvP169cf3r2DNP+HZ2sm1pJ/fqGZGw/v/fhk59Vffnv/n/9++PAGlPWvN28+fnz76f3731798sOz9d+rgmzx3pO9n9+9e/fp08e3b9+8gdzr48d/fwJ1/fz9948ePFyrYgT7hs7OlXx2/eWze4+/e/Jib2/v1au9vZ0XPz16/ODh+h/MlPKZlw8e//jkpxc7O7rXvZ2dR99Bt8WMiUn+t0uqpK9Yc/nyV1TwSjlfKmWr1WrWzOYweCEIgiAIgiAIgiAIgiAIgiAIgiAIgiAIgiAIgiAIgiAIgiAIgiAIgiAIgiAIgiAIgiAIgiAIgiAIgiAIgiAIgiAIgiAIgiAIgiAIgiAIgiAIgiAIgiAIgiAIgiAIgiAIgiAIgiAIgiAIgiAIgiAIgiAIgiAIgiAIgiAIgiAIgiAIgiB/CvJmNZfN5qql2JOSaWazWTOTCnyXNXO5XNasRtvmoCl0E2ob7Gq9eFSopQtHxfX8IoPK6/WjQjp9v1DfMJNb6LFy2Wou+F0mqzHjvWeyJnzmGbZirtUL98GyetFc1mM5s+QbEEZblNhaPwKXLew2lSnWm+lWE3yUS/SLqTuK4E86d+NF1jJOjK2trX4t9uROH74/2Tr5NeCI/b5uvNVZj7StDftb8DlpJQ1RTTcq46ltWZ539rzR+qy/c4X95xdTQqDx+cRYXUto8qu2Cyw7CGpl9t1WNyqmjf6J37iZuG71bn9yDoaR0fl2v1tPLeMwc39365r+7NPfMvrD44TVzjV8y/pGc8FeL+wPxuc2zHs67jXSmYRpG1vGFX0jQLt000V2V7mOchy3EVsBw3GVo1x+GHBFxXUA16tHGj/V3yvH7cYHWD8cMK6kEFIwzpVDT1Yzcxcw3Z86inPJpBTccdjkNC6zA2dmsRGMV86MaTrS+EjblWzYSqFxARPk2jIhucPHjUJ5scPWJ9oterYhYIxJgsgKYvbY7Xw2ijU7HlgCk5ZSgo+swWFsK3b9Uf2R9V+XH71C2+ZNF9khY5ZtEfk09mRTMptajK0GhPecU8uyxHlUZPuKWNSm/E5sh7Z6oDBGYQibUmrbtnTlcM62bg49V0ITCGSjETSmxOGTg2h8SQvfYr4ZDJZS22VR3tsIN67DA+hQxQxb2WiPYVnBIgt6g0EpU/K8vXi9MhVHxz6IOfpXV4BBlYSI0uYzw+TF2vwu652pgnbUN0b/K12yGz0UVmHaFrHs0LDwI4tXsjdcY+VDbXuSyMpaZMRiZAmRle+CyOATE1n22FPUA9VQvS7QQoCPmLyoJZlycKFAYroj3ZiC0uBP7h2X4iKD5xGR6R+BZbIdWT/u9xYXWWEA8dLyCLGFmNk2sgUTnbUlROYPBWqYjXmJUL24yDITvzH1RHCvRvdWRQkLdhQjviB9JRG1XYuJzB8wNCiFvXvzRbYyV2QrlyJbKpLNEdna0AYny9mSUB1TfL8IehZP3nKnU663sfaxbsz8jUuIHHUXi8ycRTJiCa+2lMhaF4poPRMdxSgjno5NhApmmMuI7P9quAbCT0IkO7DErCXhJ/NKnu4Zh4F1kB/ZhMx2GIP5X7RiIpvtPhoc1gKR5W6tyMqNz4isOEdk4e1qdkBPI716RAihIN2QemVHzFKVWMToetIXD2hQNxSCw39HVHhyXFtWZJYkfFIMH5eJImtOXNtmWs8MciCdMTJfC5ST4+UiGWGM+SnUFSq+2KmhupSjJ6f1OZXX2GGeL3h/3pCXaRmB42XYR6uzhYIE5npIAckrc26ByNi8SPZ7RBZey2MqiN6btuJeZdjpGNtEcfg/ZBKuEdn2rTM128WC04tdo9PpjRzJIJCBU8O6SRYZ8Q8PRiy3U1oYydYGSujMj0jOz3aNRmN3yrnQRzqVXm0ZkTHCziNMd2OLXR8r6zKSMdZO7G6touAUhGAvOdveNYzBBfwFEwEVi2Gww5qAyVmUjaLjers3XmR3QGSU/PFIpjMUFo5kzSm3BYVNKseNVgY8kVo7HHpSZ1sWt8JBL9MDmdqEMjEartZ1kpFJN8ZggQBv805+KZFB5NNJXDceyZywyDpCwqThVGaD7pGZ0jcnpxXYEHBsMlXJLCEyUOT9o0KIZjFWm54y4aeYWh3kLCl1ynccfUxTS7DBcTFXTmWKNcOWI/0LKWoRkenj1KhfD3kEFI5ertwGkekN/CWRTM4RWfi4rO7CskHuTlSldeX+6qnn2DrBVSehu8s24VAqEeaMT6+TotpEQRI3stS4HhUZTRQZmAAqmTQXiKw15X46JlnneiJHQynhbLekvbrMcSnHi32bHThUbynmJ5d2OqFJ7RzmPRKWmrav6mKzre0TNnWCMUqLDBAHt/DGf77INr84koVFdkdIW1dMrBeUSP4YogARHreC27QAvoaVoPKsK/ppugAAEQRJREFUFgwHtamy2Igw1SgvKTJ4JNXQ/KzIMj1/FlBSNILBpdiDo1xYlD83F4uM8vHiK9CCBx7QaiF+FThMuKsFU2xd2067ge5KpyP9Q1ta6ZDIbGsknDvfiMiWimSZic5yIJXeLoQXaeDYEDAoD17/dhymC0sxCu/T/LHUkcyW29WlRObrzBP09LMiqyk9LziIO+GCr0WZ7UG6NSosFhkR44UvyFbafp4nKs+1I2w53ogHMqEzQ8i02qHbwFzHsT2dy26GRKZLS3Z4a0VG+P7XjmRpKKz0kWTdjZYa0nUc13G3r3OfjQvl2bbFhBHJYYtTaKhc12otJ7JZ/qPGzUjiHxRZeejaAmpepxeZRWng+i80nNMlIpk8X/gSak2n/VCE3r0/5VSfdHdjTXZ19cls2Yu8p2tKh2sfBfLDmciYuJWRTHyV41J7MSyyTce/IlCDaqRtta1fuG2ddDKB8lzasKfleSyGdIdGH9oaraUSfwqFGYxqO4P1+ZFsHZbcT5Ji2U1z9l7wpLtEdSkWi+zA9T07Lq70HDIiVPWiqT+Ywjyoc2OJVtn3kTFsr4WPSzgAbmMkO/TrHyoSbvxFTGQr8yOZfgUVFFn1guurQk4SnJLPp8r5Uj5QyLrUhmKPD+NHUC6VypdLufJSIuNn28IS+hK/fdlTMX5P1lKQ3zOLJ7zoyQOpfC63ROLPFoose+J64BPHyIN7dJEspq3YaSm0ec4kZkq5lAJKpfBxCZpVt1dkgsRvcTaZ+BKRWWGRFWyl763UWX2xDVVYN5uMmEwvY/Fn7sn4Zprq2yTr6rYrHslST12Iuv/j5up1G+eVqBPHWXmdOPG/v4sYa6ixgRsgjtfYAMEF0m0hFiTAkgVLvgAL+iFUqfAzuJAew3qtb4ayE0rKxtrd5jpMkUXWiWTxcObMmTMWNFdM/MY66GTRsV9fBRqurSg8k3YKlWEgVbFL/rCxsq6ZVLhux7aVBP96qiCD9fhtdJ5b334wzHd/CrKvnIUAMv5YQSnsQTGFonja/UuQ6YfaWCF1SfW+pC2D7PKHCSHGyj/drQPxj4698MlAdA6UpZ7PUsJFlZ+n/lfPGcjktBrI8LJy3Oh2u/3uYfX73qmALFBBlESJuyJsZv85yP6rs97IoMI9NPH5sZTHF38HssA8AAbgVlggWf0X6bKRqSU8Hf4dyI5JGLcxF3An3EapjtApE6zQJccIDpRCpaNqICPYzNr6vr97Xf728eeppEuUGhR3l9JW+/tTkJ0h78d0WeWQnmfaqH72/hZkUCOfbyEsMqLSxfsga6dYpgm16/0VyBh9mt6566Ww2R3sqVGVnu/1HCEDauq5HNv2DdaWetuqCjK4MLemsuwL/rVJTwZkQJaxX/ba36fAjSktgezD3mUOZF7d2FagcXmq97+2s1qtN7UDz6jguS3ot/v2Zfi91W57FdMlxFDCCTrkLBu06ZK4IOsJwDPsbI5s37aye+r38aKt2+PEXygITGS/GGOSFzrrdXvlg/9njB18qDRzyG7tEGQh3zaqpksWkjR0vT5CbpunAjJCoT4mlLwuq0OX0uXZDx78wuqD9jmiHZBl/oOcCtrbxb4fZ8uP/dkrbAxeSmjX63q73MXx22udpPAByDCS1bozAjtKlcL+cg/DFvyHA7IQ3ypUdA1X9N3exM7lFsdABuUFZj93mbzS2Npx6wvbV+1DIdFhmA/s7Z1Gj5CuCjIom4M9hd7v0ruyz/+jToYgYyHDfrHrU2JWTHo/kiXvg4xpJ11qIeAZ5EA2RGs1LI1OY27Wh59/s8k2n0xu4w2+yOZwxTfJsIoYa+yWNn30PjAVPGEkkwEJXZC1Q4XHR8dOlXE92WQcYX97L0cjWSjQgubaB3UeZC8KikHxWlxjnwNAZ+YXOZBxtNjxdbd6ukwRW/uFfVEVDU8FZMBRssd7WFxzODVBddMigEQ4IPMGBs2exD26100O+51l40AQtXsDGcFGk753OFk3NuTgdcwnhY9Alm309xDlJ4gQzVpbMdgWF2TdhId4q65M5v1ng/e0P2SMTI+CTGLgTqmzZA5k3qNGGzm/d54Qkg/pQqKb+WZ11K6YLjNnnmti4+ZkQAakLJnH+TVPCZoSfgdk8g1ktTtjfWrcFXmbKvMGovNLEBm//pwjnAPl+pcbsQ7hT2ZRFchMFZAdosmXe/TPMGKWXxrE5lYHZBdrDSALeLRyheeNtfpXB1kQEqXd3TabHCdrBpaSCXj719femVc7T7E4pGbgaLgX842VvpJmNZAJJIHxYJJb4/apgEzIp7Mzz1lXV94kYO9wMguydFXUhLJ0yTtOp0hagcqJTtdDvbdzonNLsvkrf0mk7e1FDRdkG4ZjRPhzQvWuVQVkB17UuwFWBow6HDe5rZ3N25u4nOtMC3BcIGeTDbM3Zqm8Cr4e5WRCyrW/dtZum0PmIAvOZDePb25u4pv5GmqpALObg4mzZ2PvTnYqRzJKiwfgunYKILPiQ56G2BsfS1KMZLVnpPMQHIpHb8DRLS8dyb7J0IQI1Mep1H4mSbSNoohg2KDk+Q1Q3JaizPmzjZm1gG7DAL6Idrrpx9MlvCZVVv1L6lIUIpk3gaSNgomT3q4GItpuk22E7UFBxOhoJKMq/bZqDh3L4k+XWPV9bvk5hXxmLAnllOBxZrk25cCggVNsniqCLCj6Qk9kWWcsFPxlF8aDKiv+E8ssSKn/M5MUwMDIyNE8lU0FwqEMF53haDQaLiKrjcjXZspZfWOHu9wuvTfsjEbno+YN0nTiTgJViGSwfYGCWoYpwfD3qXnb2uuvBvsLQruOwNYIV3PJLXUoBer3dLIPFf+FVCnWloRmo2tQVdlaHXA/czjBP9oOIG1mFxVBRihffCqQjcsujNoDtyoTL8RsL2E49SYdcnF1b0L8fV2W/LtrblW5tz8yRVEtoNwvl1mP2lKZeu33QHa7NHZkTdq9pU66rLUIvljwtMyExhpxodaN4yDjH4Hsy8yQUEkqDnoDDoDYb0GOqLfQggHAKXXOaz/hgJ13Op3bEsj++WyRrASyqbGeDfWc76msuJ1f42tHpP1u9yJQ69JevkiORkRH4Fmh4Qq4Sdl900xYiMnp7mOQXRZBVhvuDFR/mQGIuJys9uUG+z0Ak3HRR9GdAxsQ+WDzC5BBvfsBGWolCsATCjRi2tIzwOFTiGqMMuacOg+dATgUXWzW3+5EKsJQzdufCmQPlSLZUNiGZqEe8gZW3g+0G/ZbW03gqTJeNCL2dwhJauZvp9RbIjmhgt8UEpW3hITCoMhv/i7Ianehhj1FGUXkQWZ9Sbhd6yLffgGCAFUvmx5vKzG+/cDqA2cR51TeJCH76QLWJxsod1BlKhmGOx0VbuXOQIVE6eb+7FOly4dKkazrSwkhnqqc82uIPWcbG3IVp1RIumk4zh3TLxNMI5CUXLY7RC5EhWKzfKaaCiYhsZrHi98G2WUdeFGICANEGXdr2rEWhIWM7fIS02pnLflBtDoOMsE+iGS3Nxr4qdDrZf35Plv1ZX15A8eF0JzF/HZNVMrw4xVa+TtB/YZwF+6nDLLvmcZXMV1eTTizxn3hvNf+fea05vmRxd4us6nqZOGkn8ungFudICcierNsspfJgVON1kY7qB5SwrhrXK4IslrLN5Ts59FyIKtNIaYQnE95dLe2N0MaDmG67h0HWaA+8JM1E45sTN/lC3ZIohRKaF7Pn0SsZwmZObfSm1ujcaB3/SLIAv3PSYLMKv7VRuJwmgweFDAqHj21s6d8MZpRi6ZQz24L3EsCJQmpCiarQ9hfTQKrghRpCARDCoGPEvXYOUSt7kukKYOEp+L+H4Cstkg4Ixkry4MMuJeA+BgSvZsebvliEeN4O0TO5GMJ/SBh/Hok7mzAZVjqhgPOHpF5ws8dqawfc1TtBOfx4X1fdWLFcYyEmnFRJ4Oncff5QXYF7AkrSaqlP5mej76+PCfGOmgFDwvCxsWMZ0WnNEn9brhqDReTiHOcxaR6W8hJT4IHOKzPdTJ7Gq16vc7YZ1oCeoUKchCpDDIPWCWxPaxcdYlHJdJ2GpJx6o8XzVZv9DITBodnA3UkkFUAWX9rUIgt+12n1M6C5OJyJ1J2EI/paHa3GA07d8vEwJsGOPF1u9xWUvNxYQ1evJMF2fW7IMP9EVDvpUIprYKQ7eksCUKzLJpgm75iqW0JMqKEH0dSKyizMF6JIrVoTFRAZUpoCnSZrv01kZLgB7QEiuRLh8ogqzXm+4/IKILMewlNRPCTNgjhKop3gitFQkvo50fMXcdBtggYzk2Wdfz2zuAsA3cZ5hkkTPygFaiRjArSJGXwWIWduco/IzvcC/WydF1/Gj/xLb78ZJGs5k1DFGQJzk4ymaUjAjEgMPOyC3Dk68w1xIFtac1wagCqRUZpST6otWdYT6GYRCl+pghh1nYAiXWZ785VB1lttLXCewlktcsxQ3sGC60gw7F5leJgMNO7Y/3m4yB75PA2Q1X+uANvYrAby3NO2EadWZVQoqinFPu3vTvWTRwIwgBM4IjNQXKBnG0UgQ7REOkiBRMUpDR0KexiLW3pYku/gAvyEK4oeIYU5DHgtW5mSSTAa8KlCtL/XQnC9nqyXu/OziWc0MOFHNa720Lfl5UozLZW5Xkd7CSq+uiUHnlsT1ayHOpbNnOLoZ7v5DgTSvVNazFen+4l51GsdVIjRybXxtjduv0RZSORKO5OOCr4CFkmOI96sBe85iATO8tKH9fQUbryRi7IKMrW+hWGzoYjW+/R4PSg5aerNu+TscVBVntT/IRWhsTzMj/9IzXb+eiqG1BLB0L3pJtF+kwESeBU92f8Y50vs52zyGF3CkEmecYwUoZ9l9TjBNTp7De7NX2dSZ7f4VDgUkahSFLpmzMJxpU4TTi1SqcT8Su8ULP55Mp4+9rzRO+CjTilg6NYKalG+4+vcqKDLN0JMt7KE+Z6spL1pHN4gvwUZqP3i35c9+IcbBFfabpTRqM4yHizU/FuJSfVmV6m94fWSnKe3l4CmdV7lTR65X/vtbOiJM210U/Fzw2xnVnKLRWbKzx+tyDjLjpJDUGWyiiJTMUX3NE8pcdZtOkEqEXEalKUd2c3fc5VC2n4I3T5IBncNovmMd3uWtIzM+LFZCUylYTLTi4eyxQbdF6LnSDT+R3RIjcRU+/P+PoWht2KrfZLRPeWjsf1fGIa67w4R+T9V5eLjKuCvRUEWfVlFiZhsrg1/SG1FxGdvEz3RqTjbiYphuhMqJVoUKGykbv/88NEckk0uldb6bh8bWn/24/Jeusg5om//L7LNi94ZEFmmP0797p9QTdaclXfcO53xgdecKrNykpxTKb0ffHqPxzIAz1320tdDY5aUsq3x4mhInUz40UAsb08U2plupiqys/2Def8+mDMELPH09s3EdHRqMdMgqXjHvOaVn3kma0sWllFw376K4njzJhZ4VFrC3pfHu3FRcN1+msaLEiuq7fum0qED9dhnJNlcSz8bx9kLe8PK+ffqeqbTzxjTDSuy9PKne8/VZye+1n28I+613Eqg8dR9/6hdnX4u3bd7f29ufMHlZueWzX1FlXDGdvNoqs4c/VF/C64+tpwSmfmV5ypd33c0MZ+3hy/6MFa35yKZ1xkt9zNh14unBuXbu++OxiMuhPv0vT8q7puzch9PoWUsq+y+T9NsM+O+/KFbdGXj/zls4ZlNQ798MVFvmG/2tSfHuy/ffmm23QmdgkAAAAAAAAAAAAAAAAAAAAAAAAAAAAAAAAAAAAAAAAAAAAAAAAAAAAAAAAAAAAAAAAAAAAAAAAAAAAAAABO1T8DbbGC6eYYEgAAAABJRU5ErkJggg==;" vertex="1" parent="1">
          <mxGeometry x="940" y="-603" width="82.5" height="55" as="geometry" />
        </mxCell>
        <mxCell id="uJoUfiKjGKuOFhNrrg3Z-7" value="" style="aspect=fixed;sketch=0;html=1;dashed=0;whitespace=wrap;fillColor=#2875E2;strokeColor=#ffffff;points=[[0.005,0.63,0],[0.1,0.2,0],[0.9,0.2,0],[0.5,0,0],[0.995,0.63,0],[0.72,0.99,0],[0.5,1,0],[0.28,0.99,0]];shape=mxgraph.kubernetes.icon2;kubernetesLabel=1;prIcon=api" vertex="1" parent="1">
          <mxGeometry x="1020" y="-543" width="50" height="48" as="geometry" />
        </mxCell>
        <mxCell id="uJoUfiKjGKuOFhNrrg3Z-8" value="" style="shape=actor;whiteSpace=wrap;html=1;" vertex="1" parent="1">
          <mxGeometry x="710" y="-150" width="40" height="60" as="geometry" />
        </mxCell>
        <mxCell id="uJoUfiKjGKuOFhNrrg3Z-10" value="&lt;font style=&quot;font-size: 19px;&quot;&gt;&lt;b&gt;&lt;u&gt;User&amp;nbsp;&lt;/u&gt;&lt;/b&gt;&lt;/font&gt;" style="text;html=1;strokeColor=none;fillColor=none;align=center;verticalAlign=middle;whiteSpace=wrap;rounded=0;" vertex="1" parent="1">
          <mxGeometry x="700" y="-80" width="60" height="30" as="geometry" />
        </mxCell>
        <mxCell id="uJoUfiKjGKuOFhNrrg3Z-14" value="&lt;font style=&quot;font-size: 18px;&quot;&gt;&lt;b&gt;AgenticRag-RecSys&lt;/b&gt;&lt;/font&gt;" style="text;html=1;strokeColor=none;fillColor=none;align=center;verticalAlign=middle;whiteSpace=wrap;rounded=0;" vertex="1" parent="1">
          <mxGeometry x="160" y="-242.5" width="220" height="50" as="geometry" />
        </mxCell>
        <mxCell id="uJoUfiKjGKuOFhNrrg3Z-15" value="" style="shape=image;aspect=fixed;image=data:image/png,iVBORw0KGgoAAAANSUhEUgAAAmQAAAGYCAMAAADbdw5xAAAACXBIWXMAAAsTAAALEwEAmpwYAAADAFBMVEVHcEz////U1NR0dHT////////////////////4+PjBwcH///7///////////5QT0/////IyMj///////7///+Ghobm5ubZ2dmMjIy8vLyFhYVzc3OmpqZ7e3v+7bnm5uatra3/88hERET//uDxyXD51Yf+56thYWFTU1P3y3D83Jebm5tvb2/41o3zu0+VlZW5ublaWlpqamq1tbX+/v7+99RbW1uVlZX1xGD+5KVoaGjzy3b+/u3uxGPsvVaenp7835r71YP2w1/wvFHyy3vntUnl5eW1pkjVuUn/0h8iIiIeHh7/0h3/0B//0yAgICAcHBz/0B3/qQEVFRX/0Rv/rgD/qgH9rgH/0xv/rQD/rgQkJCT80xv/pwH/qwQaGhr/1B7/zyH/zyT71B/80Bv61Bv7qwEYGBj+qwH91B/4qwH+1B7/sAL/0iL/1Bn/zhv/zx/4rgH8qgH50BoSEhL6sAH/qAf/zyoODg48Oj790B/60B/4sQP/0R84OUP0qwH/0if/zSX/xxb60yT80iD1rgP7rgL61Bf9rAb5rgk7O0f/1x/+wxMmJiY9NkX+vw//yhj+uQz/1CQyMjL/1Cz/qwr3qwkJCQn6tQj3qQL6qgYzPEb4uQn7zyf9wRz7pwH7zhn/0xH/zC7rTkr/0jH2sQ42PT7+0iT8ziA3Nzb/pw71tAT/xx9JSUkuLS3/0BX/yx01OUv+1CL9uhfwqwX+sgLxsAL5uBT41iH/yCf61RDzpgfyS1E0Nz/5vw71qRP7qw3/wiT+sAv0TEb/2Cg9OlBAP0ApKSj8uyLtqBv6pQrtrin+3DLjxk3+3VD92T/1sDf21RrrtDfnqQ81LxzwqxL6sRY+MA/vpg3+4T7tt0PQtkjzrCHkriI2OlM+My1mVRm+pD5JOQ84LCaghC/v0kZVQxb8wjHTUTXztRdAMDuEcCaSfjPmrjOslDf/zj4yJQ/z1FZ4Yx3nUVhTLjWuUFPiWlmTRELppSrrkjDXW2J0OD3GVlVoMTDrfi3ZaCltd7pHAAAASXRSTlMABoLdIi8dFwtkkkoRA0P+KIU3UT3HbHe7mdXxps2Ce59y/lrawZDq+OKruOe3/7+S8N+eWmb+suua7dJQ4+2poM/298n0Yf/3oI8b2gAAIABJREFUeNrs219I23obB/AzmDuDnXeM7VwXxCkozDtB2Rxz200gCg1NYkoTTtNaYjTnbTOaQNvR9m2b08B7JTas4VUPxdLSMzjjtMet9KKt7KK2vCCWioheDy/kvd3l+0u3vf+Y7195L9bnI9Zo40388jzP75f41VcAAAAAAAAAAAAAAAAAAAAAAAAAAAAAAAAAAAAAAAAAAAAAAAAAAAAAAAAAAAAAAAAAAAAAAAAAAAAAAAAAAAAAAAAAAMD/12/QBwCX7urNByPDtrGZiXv3Rufm5kYnJmbGbLbhB9euw7UB/6vrV2/fGbY9uv948vj44LyDnHROTzqdA8vx5N3RCRS1IYga+C9duTViGx2fPO6c9Hq97lEllYpGxYBPC/rEaNQwekdHvXr9pHMwOX7PdmfoG7hg4D9z7ebU2Pj05MHeUb29xVKUqTidFEKwLIG+MARBbBHoG6Rd33t/jorajO0GBA382yVsaHj08eT53lElKqbTHMESDCOQ8pbAWAiC4xgnx6IvLMdxsixviWLW7J4eP56zPfgaLh/414amJmaP39frJkPSPk0L7O7qAZKkaZLUNA29cBxBCD5O9nGcaRiGiN6gGJYiOLPS7Tx5art9Ba4h+KeD/o2xu3887UZlpVRKc6u0KAZ0PZLSZDmdbvQZWjBA00Ht19UgGdjZ2UlFgk4np2RKJYUQUpXuwfS9YWib4EK3puYmz7uVnWCQpJSMGdCCQZpOy4LAkAy16nRqmqhlNVH0iaIgCCRlFTia1gSzUWqXShmKIgWf0TvZfzp8G/bSwOd8OzZ+jMZ8anV1FXVFXRcDAZQlQlEUlvAJWdPcQp9Z04hGTSNrtE1TscY1wulEVU630AzDsgrLlo7Opx/dgAsK/tFt2/j+Sc0a7Fm0mqSDEVTE6IDPl0aNsNSoHx62+t41W81m/6h8eHjYKGVMNPaLmkZHfooENPS7KJIsFah0Zh89gK4J/tbNsen9vZqoBdA6MZNRFIJiBPSi0elU7+ystblZreb61tfV7e1tdRsdVptI63Ve303LrMIEaYaiCILRgpGAb6td3388MQIxA59ctU13alsCjdaSum6YMgoZQWy127r+ovzy5cv427dv19bWijEJkzBXAklubPCx9fV1FLd4/GUZBc0QRVogBdRnA5FI1LC20GqdhxAz8MHXtrvn3VSQ+TDGI6uybJqcfna2WY3zsbU1LBmy2+34R/1DDMNwuwMPJ6VEIqaq6sbmWV5PpQwtTVAckdY5tFSgxaP3k3NDcIHB9Ttzx6fdCKmUMopPYyjGaWazUeNFuZnLqTE+FpcKPIZfIJxMJIuxNVTUNuLVzdf5vK5nTYKgaRnNds7d+t5e5/7wLbjIg76knHjS6VZe/Mqi8b7E+RTFNHW9XN58hQIWR9y8JPGS3Y59VjgZSrrdxSIfj8Xjqtosv8gbhm4E0bLUWpU28vnKycH9EdjPGGRXpu4f1HYiQR/BKihkGbPdLh2WN5tVVJvikiRhfIGXipK0cEHIljyeZLKwJhUKKJFqPIfKGRrQKj+lAjKXUVhZDmpUuzNrg545uIZmHu5lBc1JsgzJskpG1xuH5SZKCx9LJMLhZ888824MK1ql7PMh8+LzdrskhYpSsVBwx3lejVerzdf5VCUrE/37nGgFIHbP78JNgEE18nT/SCZJs8SQFIHm9Gwqj0Z9lUflKxx+88bl8qyseOySFTL8opDhmB1fCHkXJCmc+KWAGicfU+PNVj4foH0Uw3CcQqyS2b0nMzCZDei+xWnbKjeyQgg07Uvt/OH3v1srSM+xlZDHtejwLiHeRVSoeB6/IGQOhwNDtczisk5fQOehiOaqzXI+KgoCxxGMRhEsUd8ffQCT2cC5fe/4yGc9IkaRNC02er2zZpxf8HjeeMIrLsfiomPxGRL22iXM778oZH6/H8OxeQ/i/cGFcubyeMJJzO9Wc83WYb0tCyRJcmhFIURPZ23wGNCATfwjowc1VMZIBoUsEozke813OTWWeGPVo2Wvw7Jkty+uLKBK5nZjnw8Z7n+OQobPe5aXl73eH6zK57LguF/d/tO7Vr7/IFAGrSh8wcrp5ATM/wO1OWZ73OmhkYliuLQQFGuVcjWXU9WNjTBqld5lj2cllJxf6MPd7otD5kYBxHG7FTKULVTP+hlzrXg8MTW3nUNLgJpAmbquCavOGmqZI3DpB8Y3Uw9rNV33ocUflTbq9cNWlf+twyHFVD9KjVsKh1HTS7o/8lvbrheEzDpbclvt0hOa/8SeSCQ8S89cIb7aOmmntSBNEqVSSa6d34eUDczIP/NkT9A00UewXLqGhrFcjn/188+LuFTwozTZ7SF30p1MfhjoUZQuGMiwT/Vt3hsKhezzf/mJ/Zdk+NnS0o/FWC6XO8mnNNJ6OoOjxV5nfArG/8HI2MR+mwpolLWwNIz6YXUjVnj+nXUv0vF39yf7gbmwin16E/94xl+PUEodDrtjXkLrUnU91+rVZI6gGEqjg9G9adj+H4yMHXfbu7TT+o8Qs5bfrOY2YpL7u3mHA7s81t4GhlppnEeTWd6QBY7hZLmhH53ODkPKvnhDEwdHEcNkKJlLmwbKmKrGikVsYf5DPbqkkOE4qoqYhPVvN1VfR7PmFsewym5k5/QhpOxL9+3o+xqpRTWGUDK7jfLL+HqyUCxK/VYnYRJ+OQnDMdxh9Uxc8hde8evxzbxhZghWIcSdne7DKfgzfNl1bPTUYBlS69+qbLyuqnwhLPmL0sKPmLWzf0khQ2HFHYuLi2gwQzlz8+p269DYzbAsQQcjOz1I2Rft2sRBahUVFFIm0majhVplMeFZtmJRlFAdky4xZPbF779HOXN4XeHwhlptHmZNhmWcDc4p783CTsaXnDG0rmQyGY4g5D+zd3ahbWRXHKewhYXSZSn7HFiSGLaQvBWy5IO0pRTBKDDDlTRjRiIzozGOlNGMZaLBGq9Xw0z04UAeHEVUNmPHwo6cbLqKY8WSZVw7IdnGjr9jx2k+ba+TxY2TJn3qY+9VvLE2tR8Kbo3E/EEggQY93B//e+655xwlYn2QMVXjeBoF6cI7bTtkeL1b0TRDTsEd009QdlS1Vvfk4CFzMSr1XHn01WA13CajrkBrNtanxkN6GkLGodQFwgzbprD//XZJwqiM5xVFM0Ks2p7Ljrgo1AR8MvvkC9PLKtXHHt6zwSPeeVd1IDHfrhYrejhMgkYG4zF0BwmAdfsgw3GAUrkKTdPKV7rEqldy84kaKhBojebmR/eYXlaJ+njX9IP+6x1OGPKHG7vvyCGG43lax9G1EYLMYkG1F9sDGXyB9U1YUXRaBEC0xuPynfuttZStMTtys2PUvGGqRO0+mIh214Up6GXR/r+k5DSX53lSxBkcQQbj/u2DrJjCAFjxwKr0iEUFjVBczo11nDzV2Dh43j72ap9Zk1FxOnTgnifqsNkoyj/Y3a62MBZOcdO4Bcex9Sshy3ZtlyWwCYKOXA0DyN60uNx+2lPjj7qIWlt2+qhZX1Zpm+Xex34P9DGCcgz230nJ6IISVUxY/qfCNq4+UQOdFldziWQgQPnDdZ7h/bvMZako/WzXHx7UhR0UQTiTyT41xW7XSfK/IU6HO+aVXLLVH6Xs/pHBJ4fNoSwVpd8cGR3udtj9RGtysO9qiNV3AjJMY0LyFehlrSiVEf7myd5PzZWpHH3yxTARTdgo//mbI7mrobSiW///kEHMeoSQPLCaSFKEa8xxPTtdZXbKVc5muW82SXnq7FRtLJYbkNM8Twd3ADJ4AICQpW50J+GuTdR4HMO/N28xK0afP5xPOk52ELaaRN8NWWb5CG/dASMDAOiGIXe1Z6PVfls46nKOHvzIXJ3K0KcHH3tOn6om7NWJbshYSOEjkR2BTAScpmmymquLOhyxy5eJ5Kx5wqwQVc0OhhvrKHs0meiT46rGcW5yJyCDVoZDytLyle5s46nWy5fttnt7PjHXpxK0+8io32arIYjEIGRMMTiFI3cGMsli5RVOkNQb81mHK+CibDV395op2QrQzw/eHY7aYajdGstdiWuKlvfiorSx8igli1pH1lOz7/tB3rW3oQ9b5mw3mkw2ukhKE7AftKHAt0GSJrGraurOg6jdZgsTzrH9ZuxfCVH/9P1EuJYg7CggY3UNGpkkihtLj5MkLugK3EPdJJBwXPjKwhTLp5VgkMQtLIsBcvPrJlSwjThCXeRM0CJgEoy6JEzQgzh0LYAB1GBXQhn8OiBpt97S0zUwP4ZGfzqdzsd7zdi/7PWrA2NOR/83NsruWZUNRnCTJA2kEifDOzuBYhhKpFCIkKLEsCqrMhLIuGdmCgWfBA+jZGHzcwImGAzIZDIijmb6GCxkNyOKEmvotPXH93JpbwoqZSTRrCn21sDI1w47ZIzKzv7abCwp9xRZ1bTTWdPY77HVnjbiPfoxN4kDrKQtCYPu4oXuBk+cEYWBYVOQOxHkOC+p5/ORgg9jZRYv+DaFDMcN3evLAOhdSpDL87SERNN5jrZCJ4PC0ulSyGDgDxlDzXItal/WU+2iCFt29HefmctU3jq05192inLcjLaO5OJyjwAhA3Cbw0ogkw3d19kZ8bJplS2yBsVznGGkg3zGBwSIIb4pZFbOXZyxokDE3JHIDK8g8TORCHQrpjgYg1PwDyHDgEVg0mx7d3akmiKo2OirKtPKytvIfjs7X01R/pvnB+//EBLYlmNuGF+VTrXDLIZ8olDoxNSUrDI0hKwA900fwBiWtRyHvAGRYTav/bfS7gg/k8/rkKeMz73+aIR3kz4QVDhdR1WR+E9z/ngRMjbNiH3zw+iPKc4Pjx420xhlrV88nE8QhCvgDNz/oatHEo4XawklltmADNc0N4RKTaVUkNF14cSJaxYYtGdgDC9Z0WlA3GrSohWHZHF5uDtGMp0ZRsK80M28mMSIGUDyaOoK9DLw4c0SulxiBRwMrA77EWQj3dNV5kKVs5F9uVqTaHW5XM6OvlSXYDl2AaCBY9BINqjB+Ygb4KwsqxbyzNTUJNLUVFcIcgNPmNc4WsSlLTrLcR/gdMRYJJOxdv34bFcXk/GR9bSmKRjwgdK4/x1kFoxlL9DynVUP5QwE/OHBA2bNTxnrs8OD9mgsAE9x4fa4EkTxkbU4n7MEsmCk4G0JpYVr2vj41MTSCtLSo+eT8c6C95oR0ooh/FY33hLDWBUfXa/fmpp6uLSytra2sjQ7ORXqOVNffwwaFhBLD5dCsSobVcmyZCSUWu33uy4HCMo5/aW5VGWrX1a9chKxWNTu7Mix13gvvr7UP+l+s3r5IMuQGX58cuL14ouFN3Nzb5YXXz56O56v11oMWWWhHW2RjcUZlpGAj9b+NrW0trgMn32zsLy48mhyyuCOk5KqMrhUChk6RGDFBhNQr6Fa7EAgQNnsw4fN3qWy1ScH7hH2WMxF+LMDcW/k/QgxrCTGwjDDYCEo/PjzP/5zee7cpebe3rZzcwuLa48mx+uP98gplY5snsKwYozAqiKoNyYnVhbn5i41wGcbns09W3w9MRm/AEQIGVP6S8VuFQxlUARM0UNqLhaARmazdzw5ai5WuRrZ0bsJyh8LU/aO1VQcZN6PECu97MEssiwAHzf+/PWLuXMNTW29T5/29n536duFlxOT+QsZRlX1LYo2rF6OEXARi09OvFx+NtTWNoRebb1tcy/WJiYVEYiCoHutG5Cx75wM5VBYpf5MS7Gr3Bb227JHzFxZmeqjPfcCVN3pOrvdf+MfXVLmXecbhloisZK/S1JVMeOOv329/KbpaVNDcxNEpXmo4ewzSNl4ZydQZWOG3wKyGZ7DAD7+/OXCt7ebm5ubmr5rampqvn32++WV5+OYT/Ty+f+ADBQb1lW53nd8oC/hcTjqkteTrz43l6s8tXv/135bXZiq9f8p1WVgGT0YXJ8xvDFFEUoXRFGbfPRi7s9PexFiFy8ONTc1N5/9OyTlTGdGVTWa3gqyvMWXufX29cL3t582wacahiBkF4eamv/6YmmqxScy9MwJHMdoHA8GrRjWg1oLUJ+UG1fSfD0p37h/+tTJWs91//Dej831Ksvdct/jmqij1h74N3tn99NGdobxu7ZXTbXtP7BSVWkvsneVtmpVqUqjyNIYaazBXx0jj2fGMnbsGXu0WPYkY/wNJnIoLCjEhhhEDC5sJk5YSIzMJhVGm6w/itbUoW5twARpS0KBq172Pd5IvYE/wJIfyRI39iCdn57nfc85c86Dh8uDmzaCE6H078E4HuyM+r94FmD4T+m4Go8XEkiIsJiUkOKtvXrZy/ntClm+BLLgIj87u1vfe7Q1XiggJ4OvSul0OpZ9dF4q4st+7zaOji4WaZpWKnF02DFqPrw0je6WCLnnv3nzos8QvqUa+LT7QnlH6qNP3riGnA/UExNrflOQ0RI4TePttZ1FtOmiLXAVnhbkscr+QSsWz+YRY2BicUAlVoCyrPwFwZsU8sVTGEqaNnGzjsphLbOVhy950h7PD5BJsfHafmWE84dYjFIoKdHWD1zRoijSHyBjGJYV/fMvd15Y1PcAsu4sRmfq4+vr6r5es35o+Kl7EEHmDdm8XiaV8sJg2xBigsCAngFkZ8enmYIUyyMPi0uSx+NJS/FM9ehsnudDIe5iyHD8CcXJm6W9KsAV97QVj6G/IDhPj9+OyP5FwU7Ze+gngFh/P9nv9dJeCE74R2iGFYKmL56vrd/v+9xqmOju9u9I/eTqvyI6lb5Xf394ZnAQsCJ6cCXdz4ZCotCPzt23eRFo/ewTUR4r7T2CsGuXYnGEC3iSR8qP1+oVSsuKl1x7g+ELnBzdrUNnOV4AMDMIMnDBuOTJxJpH9c1Zyk5CIONYyIuTJE1+sM/2Wf9aRqAp99w3k5P6zyOGv+5c7+ZlB+p3v//upsGgtwxZ15ZNC2LIxgBk/YIgsixJatsX22BGwsawwR4ZQMk3slttxqS4BzCD8kpKZKqHZRPJ0pesXeJYMOVgKzeqeSldKLTtz4Os0OPJZ7Kx03oxx/sVNC225/kxrVaL+loEWXsjNlRlC373y4eTZmuvYWCyO1XWifrV+5WvDIa+IWv4qdtvXwyRTI9CwQoCbWNhzNE1EJzSiGG0Mai4s1uv5RsNTx65WQzVVYlYNpHP5qtQlCHIqIshM06nHHT5pAUNaSGbRXzBJwZpmU83sgiyxUEjSRNeAudwvH0kHsYp25DB0wGy0CLkpc9q6R1Q3fruk591x6zj0vK3O86bBp16yPdwGSAzhWhSyTBCqN8mMATBj44GAncCoxxOaqfHwMlqiUYW6Eik03mEWraRzUKD2Tovux3RSyFThDgHWz5sSglwsmwW+gYJOgdoLjMfIOMHGZpEx+HB4+CBoxyHE8aQEhjj7UroL02muZmVyV7VgC6y8unPu4PWafrFtTcPetW6vvsra7wJIBNplsIZkaWNHKGVA39eWl1aWkre4QgiZJR/cLKYR0qAKaXRRFehUcgn0uBkpmj0srjEFAxHCJWTWkbKSDGgEhCLIcjSUjobP63vOniKoBkc4wLJ5Orq6lLybgDHOUKJ4dAOKFmSfeJ3P99Z0asHNBrnt90NPx2nX/9tyqXX6yZeTy4PTpsokxcg40WRvI1hPdzde2HfShi0tBHgmBRXLB09yhYKsXwiL22lPVuo7Ifoy9ROykpwMuqyA4tTUNBX9g/GY2mUkltbmTwErYSmMAqZWr1o91MOwTFy+07yVnjF5wv7wskAh7Z0YHZoBxiAbNE9//2KRaWP9Op2/tA9GKPT9JtvdboJvarv9UP/WGiBsiPIFgEygsO5u0s+q1VzU2P2+VaTgRGSm397XpWyBSjHsjFPJtNqNZtNTzxWPahXCEeUJS65gpyIUhRZrB+1YrG8pwnfynjQbKyUhp+p7pWKfvdth2AzBpIrPrNGo3GZEWXt9fHblJ0jodoDyGZ2XOrhz3vVk591N8h2Wkn2x1dq1V8GXAOv10yDQbuJop59gIwg7txbjVjQlVoqjXVl9a4jqpgrn9Q8BegQC4V4PrP15ZUvm9VmPF/dO5sniKj3klfiFAS54I9uvj1u5aV8s7p15UpzHLWX0Dc04qeH5fmXbiLHEqml1fCUS61WGVyR8OoGB8SCkS1wZDQqBN1zczsP1E6nWj31vvsGZofpp9fWdeoBnW5o8unCgshTmI0leVxBszbi8YbTqdGoXGaVRaeZcn7FhVLGSn2vGW8koOrfah29q9f3D8+PaqcHJ+V5rxyNRi9eu1RgHMExwfKNg9Pa0fm7G/X6u6PWFsRlIltoHtV3scd+iokSG6tOjU6nM7simog1vARlIMmQdoqAuBQX/H7391OWW8Mug+XV1e6wdZY+/qe5d0injkw+nBmcFkUMb79tCR2djRhNOs0uTcQCgghzuWb88uzm25PaI7R0mW4dvDurFIton+vx4T8q00F0YTSLXzwZyxNyNFgpHQJhpfJucbd0eNCKw680/l07rIzMEvbpICMnfRaVJeJEiljNvruPCZvAYjxhI2nxCWVyryHIXgzoJj/7UXfcOqskezWl6etTa+7/fXlsLChivBFB5kWQBaAi0zjBViJQKFmtUxtKIhWsnB3XWrFsQ6oel8rTIbG4Wy4Da5sCGTK559wXd5d2vymay20XAa/dYlEUnlXO3lXjjUbWU9sr7XoJ3m6itfKSr1elgsdpImCgFt/GY8JICwoelWRtyGaGLU4E2fq17qayztLVV2ZNn0qt8T19vgCQ4W3IIC0ZW08gPGV2OZ1AGIIs7NvQEikxWKmf15rxwp+O6uVgv00IPtt+ts1Gc7JM8Ca/6ZIpjGlRyOVyQogRcqlUKucIlut7rXzDc7q3X56HlpaiyRF5dUWjUpktFpXKZbG4fMlRgMzL8BDgIdFO+QEys3V4Qt27/r67stRR+vEvv45EADLnJLp5hAbItCTJIMiMeGBpygKQRZCTQcPn25Ax+5iwuVs6Pmi1oAzbzMkQZdvbLEtqHQ4ZRF6yQB4SAcOcY2HZbeIwWZ6dFYLl/aNaq3ZeLxen3X5KQbLkaNKHIDOrDAaVTqVBcWmkOQWvsDE0M2Z/7F++Z3ZG9C7d5H+7h5V1lD66vq4HyHTh/7F3djFtZFccV976uKr6XKlqtg+R2uetolatomo10tjSWBdmjMaR5wsZm5mxZwQjxjgeM2MPCahhWYqAZBbbIrEplSaxCDhGpE1EW9LguDRkszTRLllCorbbsPDUx95rstq0G2fxoyWfB7Dw2IM0P/3vuR/nf67c1phCiY9GKYqTPXEIWWLocjpDxkgoLf4MTPxjo5KX8Up2ebv6cmfn5d4GcsBgWbqU1xyHvSYDt1J583kyglMF2+aZfH5/P59norIkqdt7Lw93nlW3yyMFVIFCmyrMyVD+ByHr9MMJJoIMZOUElFWaVkvjKSO1nAl3dXUrw3dPnWg/uRaKH/57JhPuD3TErqRSxZJA4LgnwumcLvCAGPsgHQ4rCtQVf0DpztwY4zEGAzl7vHa/Wt3bEHI5OcoWOdMxDE3TDFY82tN+UyFJnAMEsAwjhU4/wuERV0fWanvVg5qp0qkUyOXijiXfWpzuJUNkp1/p7gxP3xiVcY6OQsgIHlheiy0Yy+Hu3u5Y7M4nJ9vHfVopvv8fsu98f8Cf/keKLZZUAACELHIEmTw6lUx2hzp9Pt8sGY5dHCsmGEzGgawbE+VyqSTKEAGCE1SVZljHcDTH1N+8GosO7eMUbSN/AlswTYehXAlfm5uAfwJMNJer6E4PPnQ5mewLx8jOEJmZDn8wRnCcF0GGA+Al+KhoLE8qXaHBWNfKz7/bfnKtEydO3e2OQcg6F5dvGiaEjEDmFJEeXdDxIBgbXUimM72kEu6OpReGEnGMkGVGhqNdrsJbcC7JACknSRAcVRU4zoybXAPIkICVeMjYJpxkClwBDpkyjmMwO3PhAJ3L2ZbDcfLQ1GI6newjyXQ6PQWFTOjxEgQRhZAFAYRM/Oih0kEOhgN/+Um7/LKV8v7Tvw8NIsiWPtIMkxOQy4leh0yIAKhltxaWlpLpWAztKo0BjsOsoshgFESLYB3HwKWKjdx/QF2lJMmmGlotiizrmFa5bHK2TesY8o6So64rW4JK0zThSXA6ER2dWoKRTi4toR15AYJLREXiCDJMZH93ZdZHLsB/96/tNf8Winfe+0NHGj4139JNTYOQUQBYR0pG8yoNR8bRyxCzhaWFW2MjEcGO6yIjQl0Si1QQE0WLtmk6bhRSIuQOzi+lBmf8MSDxEDK2wDB6wREJ4AJZZIuWykcZna/Q8bwGcgInE2NDlxdQXL4FkaY2N8s9r0PGpD7uD4QWziuBJ+3pZQvF9341E0pCyEKLMHMfj3MUHMV0VDxSX76HGkW57ujFixdlCkRs1RbiRRzP4sZcPpvlsyraU3QcLXUtCsdQKE1simkAGU1bZr3+HMipfEp2XVq3TNOyUsi4UXD28y6EDAPXZHkI3u3imCwDvGdzU4jjr0Fmaeu/DXQPTs4GnrRP+7RQ/OBvs12ZXp9/+qFmeHiK92BQqJD3cITjdA9BoHLLIEyegkF0Hpo4KinHMbYQhelUrkJbTsFkRVYUocIxTIJo0InJg3rzwivq17GQLlrKoblpAt6OpjnkNyvxFpZI4Il6hSeBCov1Hl3XjyrZkeExfDG3PN2rxBRl5sG7bTu81okf3ZvtmvErHec/1gycDyJHu1dP9ZWT9VeG1h7P1/0I0RWsGKGoSNyJ6xQ4KssU8f9xNfim/fWrIk5egOoXp4HrRlNM3THbU++h+Q3nbM//dUBEkCXJUEwZnnlwul3i21KQ9c+GlN7z619Dhn17NyVCd+Aw6Wgai+w5Cazua4DjDSE7egtdg3l4m+ZKBquhsJpp3ITj+eUwGeoLhYYfnGyb+rdO/PSe0j8TCnUkm4PMQ2+WTVMzEgCOmZUjA2MUYoPPojeEvRL+AAAgAElEQVReObgAZOXp4qyB5hm0pznI1tPdoT7/sPLgZPscRuvEL+4Nnx1WQuTKeqopyPhKRSgYrAwzK6leNIeSrrdBhr6VQJcBLm5LOTfBspxdaapzE57Irw+GSdLnUx78rL3k3zpx6p7f9xuy48bii2Yh27QxhkBHLzQNB6hWsm5ZhzeCDL6Fit0oAAp5FnddOcpEmofsdmw6lJmFw+V777SfXcvEj+8qvq7uDqhkEyJqKIIdE7JIpGRoKWYsweb35xJZOojzBDLLfgtkHoLOZr0l2dnPFzEgRwtGPM41CdnN9Hky4wsEFtv7Sq0E2ROfr0uBkL2YawYytH5vsHqPl88WnWIxi3l59GGxUbUSzooi1LFgkC9CuNbi/EgwW4RpGdtU4k8gyIYzZwOBpfaxxRaKd+/6fP1KR2axOcgwghE9vGWaG2ubFdpgozyOdpfeBhlOUHzWO15IWfZmecMsrwlqoUEtcGPI8oOTM5mz/YHFM20b7JaJE6hUqf8s2dcsZEB27Y3tvWr1YLtc1qCYeYPg7UoGUzLgFRknb5a37x+go0Kq+3p7sONBNjU5jSBb+nt7h7xl4junEWSo4K1JyHApa9aeHj7f+eLx3vbExLhH5gFqYSMSHg9BEHi9X+HRjgHaP0CQAUAFrzETExt7j58dPj98ur2WxUFTkGH5/anJMNkfCCTbkLUaZEom9hBChnoN4sdWsuzGwRdf7u7uQlxe7NfmCpQEKC/LRHidQx52cZ7X9Qj8zRARneZYMQokyjJqtRdP//X80e7ulzsHtWITSlZfhkNKNgkh87Uha6WAw6Vf8ZM3Vl5oIiFJ1HGVDMPdierO1tWB1X/Ob+28rB7UrJwrjYyP96h0zzhqZGPD1KsMX5hWnBZUbUKU3UJtr/r+4fPdD1evX/3wUXUf0PQxboTMkY/mp5hz887ileH+gH/lTLuIvHXil1DJFH+m7yvIwDGXMDxqdq268+erVy/8+txnW58fvl+9X1ujsxE97o3AGWcxSuRyEkHpGFMs6qpKS252bbtWfXr4+dZnA6vX65DNUSrhaQIyDNNu3lm50hUIkMn27LKlZped/k4l1PG6kh0jU/JEeuwNpGSXLiAD2PmtR4cvYXK2UY4XswREVZZlNyfBnzJERM7qQmUEtTGBiA1cWB0Y+OOn8/OPHu+P2JHmIJu4DZXMHwhkVs6018laCLInChwvO8hPIGQYoCgsymIE+NZH70nQKoLs0nUE2aXVcxCznWePD2oba6qdkyS53jUVNeV13SzPlda2Yba/82hrfvXc9Qt/Grjw6dV5OFxGGjQwaQjZ3O3e/7J3bqFtpFccp2+F0lLoe6B0KWyg+1bYvpSyUIJAEswwljJTabA9o0GWY8+MhGR0j2RJdiZCliJtiC07crJexbKM7XHSXGwr2yaWkzi+sFl3HW+I5MvGUNsb4sSX4iTQ841KaftS51Gggy1LI2ML5sf/f873zZwT9tA4bvd/WoOseuLkY46MUObOyb8qkEF1iYrM/w8Z22FI7b5ekmQZQZYG2JJL66s7a/OLKyvT4yG1SxDUgkBgxPkLqZWFxRendjYBMUlpeZ1zyqV0cn13AOuwfaCSXdaHRTOJ103WtpWqKP7wGLyS1HVOPmxDa/LHhsxlOp/a3V6SS0UpmwUpk0uylNtY3kSczb9YWFycS023T0/PzUGurzRlWdrIFUoluQBmmZ0plrIbmwsDmuPsXf43ZKRH1JEZ+42PaxvkVRM//fU/OLM50+mYfXin75q6/vSxIfva1Pfi5SupWIxls04kZjI4Z2xro7y5uv39y7Vn8y8g5hFg26ub5Y1kzumD3ykpDY2dvlJ2aXWhzTVh+CDING23rPfsJED29KNaH7zqiRM/XNRHSMrRcz3QNzhI9LccE7Jmm6FxYW3ZV5ScadTNGiEEnllEnC0tL6+vvt7e2dkBvtaXl0aSsaKEOnimoUyIFWNyNlZ0Lu0spBo+UMk0A7cyogUnSU/tythqil9+N6nnzJQjc7GtrcXFHhsypsMwtvJsPVeMOX2Vjv7ZrC8tSXJRkpy5ZDI58mBk5MEDeJIsSEVlnlwaSZ4TKJNzqIfnqcVU/ANzMgSZxUIaAbLaNf5VFL/6ZNKuJx0Oq79t4KxKqz62khnYMSgvNwAvCXwSyPIpHf2zhVx2Bky0VIRv9AAByb6vhAYqZZXZEpLslGLl9fm5VPC86YMg8w7cws9FcCPpf3SyduqqJ37y2SzYpWOI9t9paxnUYsdWMhPbkNrd+RNAJsuoi7UvpoyOiEnOQsEnx2SUqmWBuxgaJ+eTlEk3Ugx5ZqkE5lpe3b0gNJhMmv+52eTft6woO5/Yf0KmUXmvfmu8p8eN+huPawOWqih+/vFTdDkzR2butF1zMyaVV9PgJULopjSVV1CphEEXOvGV0c0GmxtTY2gBTIUZeGx84dSrrZiEfFAZ5oVmJRXS0sxMVjHGXC4HP3xI5pCGVRiTUYWQnUmWdxbYsYCBRRvoLgxjWdbACgK8Yl0uQyjkdjU3G9RaYEvwEhiB8SrW7W4fH/4yc4/jcHrySW3qZRXFj09+Yx0asuf1sw8H+trbGTXPC4GGZu14i1bD87zG0MxoKgurLM/abE1aDSZ40Y28odaJ84vzm2XUCRul/ZU5I4BbbMuJIEPz45RJhehtOIw0TVLGF/pi2ZmNzWeLmBDQsjxPsGi6jgEYU26Ys6Ehcc0M6lDAhHivV+MlvF5VfX0o1H77dvTcLPVnu/nz2e9q8yKqKX73nHMMRfL6ob9fHWxvucDHg1EUwfiYIGCElmliGNAyBJnX5Ta5m0JKFwuVqh/rN7Tv7rwqyoWcMmBJqszzAtuMFdLpSjFZgMNoeipatnBW5haiJ77c0vb83IXGxg4CXJFpMjVrtdrm9vHxcYbhNRqCqG9qgv/qxXhhDH2crmgQPk3j2RSCzC6a6dnaNYtVtVB24rnFMaS3R4a+DARa+Pjdrkv5mzf84XBvIhofq29mbIxywlWgObypyXTaoBbUWoyxua/1938N9eVWES2BVZIyRBHoVVGSoZZMZ9PoKFrZQMk/ehetkMFXuphbf7lyrTEwONHR5GUYLcvyXkHdfptx21C5SagJlnUJmMAHo4l8OBz2hz29dy8PB1Jd1CwZsZOOp5/VdpWqKX77pNvhMNvJoW/bAoHo3ZuWbkvYb7ZmRNGDGusYTJWhgDYTqwLTMqCJzazaYLKdPdtgm5h+sf0KrfgrKZdPQSyrCFdMSvt8FbssFGSgDNWfSvigupQ3Vufn+gOB0xOtIYZRYyov+C8GSZeJadZiAqRg6nrw7XjXpbAoikrzbdFyqevynQTXQ+rqyJ5HtQX/qoqf/X7S6NDr8aGLw8PX8x6L1UpTNEVRNCf6b+ajcQwZJmTiIcHbgvHxeJyP85iaMLQ0Xmid6FhZ23wgpSsypjAFyOW29t7ubW35lNWzma09eA7lgAQSBk4JXinLBRAyk9Cgbu1gQL1CQmNgDAINiKv0zejnMa83CIh1W8wUraMpHc5xGSpxPUFadWQdefHxb2rtPKuqvPzoGyNJAmSfX09cClto3IjraCOcWFrf6fd7EnGtl0W9FAmtCtwLddyBfA3DML7/dH1r/xxIWbGECkslq0fb5cny+8P9/bdbaG0/BrztH77dKyf/teCP1K5YQmPHbWPC6Ki7nTGoNGPBYci77gajQR7o0rKgm/xYsDcsWjI0BBBP4aSO485FKCunA8q++qHWOaqq4kcnH1kRZA6655wochSO4zRl0dNm3ErR5p4ziTjk4TxB8PFol0f0Q7YmXuqNxnli9EprQ2Pf4tpmsqQwJiu7Rlt7gNjBwdHh3hYc8ZXf7x8dvdsHZXNKCmVofym5/HKFaWhTT3T0nVVjQrAr78mL4XDEnugCzNQm9203jxjrhI9C0zhH63S4jqT0PRazjgJVI//2x9p1sdUVJ55cJOlOms5k9GYODVIi6/Qe0R4hrTicUWN3b1zwqjE+CmddzFgs1s5MNwhcFz96xRC4Oji9uLMRQ1k9GlLiA+E63D86uH//zbu35Ww6nds7PJqamjp4d/h+r6xsokOiBqXl7oot1UZMjF4NEPGufNhvsUREfSaTiQBmBOG6zUbzN+xnSByFGcivI0mdPsKJ5jp7D4mbH9U6YVRZ/OKTpyTdA+k0+NIZymjE6+weT8QOHqUjdTpddz4R1KriwJglQ1IkTcODRbTbu4JXDH2pBn7g2etXkHnFinJ6Bpnj0cGbL+7f/+Jg/315Jld++w6Iuz/15giJGZSVaL12afXZim0wcG20lbjaEOzNhy3IEM0kjZNcJNwbxFpcQc9NP0fROK2LkBFI/evgo+j1XIRWWo+an9c2laotKfv0aR39F30djusiNAmSwYVvihbFmTiO0lOimIiD3NyIgJNarUYIeKdTDN+NG7QtamJwYW19JDeD5j0rjL2ZmkJYTYFhlsEsD4A49BLEDAxUis2UR9a/X5juTwn9Nm0jZF43RYpEfxSnjaCcFos/ER3+J3vn/9rGecfxn7YVysbYf1Ca5IdBfxwkjI1sbX8QnAUndHfcIR2STzpOjyXfN6wyn45zTtJjeRaVlFhBMjL2Ygd7VlkUz9bUzCgmCaVpnMVOmjUJCYO2I1qb1RteE5ulzj6PnOxvsEGPzmDJ4mx4Xn6/35/nefQ8+ZqzElfAKUWek0l9KRsGy2KoRrqQVR/1Itkha68dvceKZYPhfQY2DGBsKFWJ58CUhDjWV7IIerlUqDezoi/pkzHomI81BBktN9vm6OAFdeTWrW8++gOB7P2/ER2bnV1dhWt1Gyzyv98+BeLIK6tgoEDZ+1999Onvn/x7PeNpjF8yR065dfBgqDXYIOR7WQaiMdJX/lhyqlgh55Io5DgvgZcVnogqB0qWHSsnjdu9bYkPXSj7p8PJBsfyGPMsD7nIdaHYg47OGRCVEKfoqRTEchCyoCzAz2VekDnlSrbeLoZUbX5q/e9P/vXFby/+hujWdle4ulhtP/32+b51kmegZaBtFy+e+ezrm/dnVLoxbpojH5SyiMO8jwgZCwQrisLDhTnEyQz8LQZymrU2GfJP6QpEf4NlOMzg6z//Xq/XDll7890mx/BrORZjAfJ/xU14owHVrQwhBAjkWIWkIR0ghCAugrYgjBlZEXC24mrhxEKYWr/55PMzF/9DvBEka/YqAW0W5Gy2e13tPghtz599debTrx/MkU8xLYxHA54Cr4icyEO9CEYI9yRy5YMv0DSGA7dOZeuFoppIhPztOmYFkWUYwCy7c6w3SnbI2vd/9vblZLK8BiGbE8RpVPrAGxuActItpKpynJNFLGDc5U/kUJWcRTkkM6whyk62UAwntIXE/C2g7AsoJJ++tMrVLmGzs9vk6j6H7wC059999uTm/bQU0VQtKnndlAHkwn1lLo4dDsnAEA85TMRYZln4bU49r6mq7aE8bgVzosiMrZXF3NmNkz9+rbcw9vDksdffOHH0+MPFxcWkzLOkH2W5oHnM6IyfbgBlKEekRgT9EqHnFT2bKlX0ZhYxgsAIaLmW70toVjoWWL/55effkdDfNcfuY/v/jO0DR2DrPPvy5v3NzZZpq3aEotuOIrDggrKO9BLcWEdxkQXIeCxCbWEglMqTndYDkYjdqGGoROJjY5OcjP56/K2TJ4/9pLfK/1C010/8+vajO8tngTEeE8gg0g+5iQEpMEMmDxuFut71M9JA0BRyTAhhr6qQmSfZqdca8wnLivwucP8v3zx7/hKyfaQIXbP7bvnqlU5nd2t9fHw0amZUW1Xz9aog+nw8OVGnVrSLhRWdiwNkkMWwSMZJKnk6NBOKxWIDIbqGZVHgxpDODeH45es7D2/84qdv9jYnPvgy9saRjXvLzWYFgrfIDPFgUIaRc/IJUwpForHAAOWWUrIgYBKVQHBy1ZpLeWmgIdudGJhG2WY+nPBKJh0w17d2XnQ6BKb9SEbYunqVQLfPHRDXebG7NdffeK9fMqNR27YLjgxVpU/BUEIQ6LRCVhdkESDj2KBPdlYKoGPR2JJpkvPqOBmSGiAGjZOnc8r0vesP3urtunLQs9ixt3c+WSzLMuNLJpO5MZbYJTZQQRuXIhmztWll6HwphxBYGjAlyCjlztAeCEnFii4IhA7ZKWmJxJI1tTQ6ePrcxt5LzGa7Q2Wv2r5ZEsQ2gLHwqVP9ZFGHmnBTuiiQwTG92S7Stl+l1XYW8UTJOCGoVHVyLEk0CrIXm6EbFSQoGJfL4OcoVxbh/0LRm4/e6e2IcaDbD4+9e7ecLCchcRmKPHn2LMt3MxkuNZYkFSBrtSy1ka84UEuSswh5hEpFKxCTIipdgFqTJdE8Wyl6ElJ6Kt0avBDqf7yxu4/Zahe0rpLtI9bp7O1tbK23Wun5sBaRMlKUbhTAAAEWHoSsqPZ5vQFazTcdzuhCZqBUzVVpy2pFTcmr2vkhmRcFXF4UxbG1K1cUcFWGiTs33uktXjzQAxe/vCMH+e5kkgIWNDmmdKtLYTqVp201E7Falql6GgWI+TnRJ/owFJN9XrK0zO91r+hQYLK8iPRCI7SUTk9NzdOUOjK39Xh37wWA1tl+1YCvTufF3t7H5yaubW6mp6TRS5eGIWZ5iyVyDLTIclUoIWnP6SUrQBdrWTIpznJc1ank/ZQVtTIZk6w4KyHRx2IsJhmGG6sihBVFCLKs8+hIb6r84LYfHbmD+SA/hIEVDJDFBY4TADJIWgXVq1kmwcljq4121oEOFhWUrbsJr2maUsDbVxhCZDqRVVDF7fMEosPptLVkRqwJwOzh7h7xzU7neeclYLsbj7eujY9eGhwI98cAMtWKSWp+xYDbGgpyakXKTiS0hahFF7IGgYzhlusFOhQjW+mplORR3brTnWPiWYbBGOlDK0NYnyyzTPPR0d7yxYPafnDyxp/5YFl3QJGg2ziFJHtil8EgquRVOxOQhodpr6Z63YqOIDv5HICM0iKEMj8FqYwMnfIc0smb/apGDbc2N01THbgGoG1t7L5qOxtbW7fWJ+aXxmcuDI6qngQ16AfDDBXbGExYNATdKRRpzZNYWGhFQ/kmBmdmFVyHmDYQjVoBVbMzwzPtpkzqUK47HFs2lHicW8OCb5q/cvdB73NLB3bw4vhdYGztfHYsNzk5uVZOJoOsQAbVg6KxXCuGNFWjqUgksORp5FNIAfbIyb2a5o1JLUjtxRKZ5wEwDafd0Egx4PdHN6+1TEpqWen0xNzcexOn509fmxiZmBtJW5Dvpqb6KeqC3x8+9eEpbSbjdWsIKkuQT5xyVb+WCPeHJXMpv4x9RCD1musJBUwzCpBpw3S72bVRHq+VFSW3uDhtKGuXGUYWy4uf7PyqN152QNuJ21WB5xXZyZ7/04fnPv7H+RQCaSLFnszJer2h2jYlhTPQ+V611sRiMCmguhrymyZomW0nik1dEdigj4xi9IHehUIDwxkpEo1FJClD9dm2TduUHfJS8F7NGrYylqV5PH5atTUt4fXbag1SHc9hVHVqjT4bYhfVFzOpfFNQpgUO1SH0z6j/Y+8KXhvHzvil7antofTcy7KFOXT/hLJd2INAEkjY0krYxo4sIT1FvCeJ2GBJKFEk1WEEtsNMiI0nCSEhZp2D8SSeCQPemdDDTPcyQ5lhKOwf0EPvPfZ7mS3t0k736oO/i40NVuD98vv9vu9973uOM5n/qTMRknHs0T/NKyPX3Tt/+/LF5dHf3sryNYLM5f1na++/omp571X3oVeWuvH50c3pWfvyqBe6hmeqKrgk1XCXfQcLFkCj0XD42fiq2qqq7rRfB7FsNkkTRyfL7FhVRNEbxYMZgIzvgLx2OpbGf39H5odbK79/D6+6XqFn6SJ4m1ZYnIRutywDjw33ChIxYP8YTtejXgyKqG65A9wEkDFCJ510uGKaGYBnSTXlLA6fXJ5CnO0cjY6vkVpdn/Nd3RrZvb/UWrIsjeInO2ftdntjo18cZvEQebkC2SZaLGc8r+la4DQIExUZ6GVNnhasbnc6FY7BEZO4Q2CXmrJH9xc5vunbHbDzGoDsf481AOnDd8c3CWFpbTVDag10MR8OEofR4csmAW3sIcCYAdlEiS0FDB2aMGv0x1fxNd3SVHM3OyxmG+32zk27ffN8GCK1VUN/X1/iu5rx0y++UVpyuTY8OAKEPaJYIv3eOHSRQU9tmGG2JHNda2qNBmHhG9cDHQ0H2NZsS9dScON4gJBcUyUFxYPLiEk1ywosm/vvm1H/NTvDp3VV+8PIC1JMYw+8l2K6095sH+sgpiWi631aqQBd7mEWlDnQWKHRuBzHrqFKqmQMs/BJgfedCWnA/8XZS7S1pbYejtZtsisav/7imSiWt7oH727aO87+bqMTOUI/6Y2zXFbFak0dLnr9QAu0eoPhIyEJESije4gr9bqlB5rAzklvmtFqak1Bbg8LvG0FmvXxMcNcajf1oAmamnIsPSWC7toQzXh8SSLW9yuYqnCRHcPD0bgv1OvNp7pml2aXAGaV7jkobjgoZjtEqN/Xdy8eAciG0+tyq3r83afr9VzJ+BUwmXQHshftWRpoT+dznmfZGT0tAqQlVr3htOjMNU1oNH3Nwb0Qecbwul/CX9GBGBrLk2S8yIzjahWc+mFyEoEeUpCRjw8CinTfT0FRGQcvFzGSaqKiiNlyFmFa4gWCq5d6sVerGmHBVEqlphW8YbhkMDIUYNcRcg97CSaTyAI+9Cft9unLZ9Otcqt1/O0aZKsZP7/3XhQNANnbxzsbG8BYQRD4Oivgfm9rqG5WRVp7XeKIFwj2fZvmd8amNxwn2KlXLM3HQsRQP07rqTXJHd/5Kk2zmY+CDHhKTzXfSk8EoVgsctOjh91MAA7DV+Y2+LVIWE7B50l54dj3AbP3tSZOBq5RkzxTHmbjghDOcexA/6NuOzs3p++yxeFmtTX67vP1eq5mfPpKKW+WW7cH55cbGxfWbprONV23AWUFrKssmh7KFkuBOwGa8e37tC0HqQbgTgCKAZAxjNBfgrGqKaIk0dIpiSo/AjKip5ZF4Zn0MjdXRerwtwosELZZ4THGTjKg2MsPE06DZ9rNEpOMw03VNE0ULwaJQCLHSQO9WfFPyIOdF+9GWViuPlwf9F3Z+O0/nt1e563b0fDx5fZGYwJMZtm6XhLqXHKYuSjPZRSHQB4MzwWaxuKei0x1eEi7COmGE0cmTn8c5zXpzllNixlH7B8FmW5jSE17kF9sSp7SRZBK8BHDCgzGHJ4NZCR3h2GvwQDINL6E4QHPZJWeJYGkkkQkatDBZVpKyHb76Pygi1xTab36/brfZ0Xjk8/eH1ybrZrY3Xv8ot3evjhheMv3m4ThGjPw9K6sqh5gqsRFoJe6zfUPXVM1gXpIXbOCps2czHFvimRJqdVyhAYJYYT/CzLc8VPtRHBIERqorNY82c1AfgFiPM/MZs5seX2M4LNBn/KV5ZMItJL2XhhAqX02YpwgSFk2ZS4uNra3j86vPDVH5bL37e/WrYurWsO49/Yqh0xOVEZ7T17cPHBKXwls0w/sAHCAi3F4NxQDjQtfEDr6mwqLB7mhisfDsCixmgaKWYkIZH5dGThPEY2w1+cZLaXzGT8SOPDTFBMQ3oVsSPQoUjaFtDS1eY4R8Gy2XChV03CniRA15sE8FfqDnNbSzHw6LjCbaru7u3O2RBob7dObo8OD2DSf53J5+Hpdi13V+MkfXl7RLgzRU5+fnx+dXmBCWN62KvoJhnVMxq4p0u5Uul8Z6aCjOAmReazkoIyMbVkdf+4LjWILGbIsS1UPBI3wYNS4f9/I9YOSGcsAIdK2jn4vQ1uSolRVLx4nHGsDYPGM9MeLhQLpxmKMuRMyD3QeVNWURPBj4RKXSqUK3ZkCLmvstNs3jxfxnqt4ozz3Rq8/Wa/misYv773+c36t0N3oWvfg/OXp2elkAgmm/9XdFvac9MKR2ALFvAU3xFuaFjkF8uicsCwr+tFk96nu1+uzXoy6kCVKZUSxQCIb3JTfbGI6irHzg0vsZwz9lf1ksFmtbZmKItaMsNhP013/6VPagRvGrryFwN83OFDLtNRfZkgVa3F8mOh+pQTIZ539dPfRo7P25bvbrqgorZHr5q3nrz9fy+Vqxs8+/+vXxyiXAGSKpHYPrs6Pzh5sX8zB+1dIY6cRCf3iNh/RRlmgKEabQ0KZjJEplQ3kZkt8MX+j+SUePgNdVaVyWaYj84ToJKhoViclHy4t+U+QNZssc9eVaIqS50FOarqD/n56MQl2tQgc/ubmpiHnYW/Ggfna7UDq6nZrpkEH8QFoMXEYcnExf/TgrP343O1WRVFqdd3crH79zZdrvVzJ+MVvvnzllV354V1yqBqjvXjv3c7p9vYk0IJKpVkhAkOKwR7q3qKrKaBM1/1I+Cd719KiyHqGyS6L5C8cOIscSH5BQpiQAyeLgqqCKryMhUprXSjLrqmvSlSwLLxVFSUtWDataNOtMrTYdAtT2N22MmDa4SyGyWrSzBACWYdZDNmeZd7PybkEApOlC9+FC9GqzcP7PO+9da1EYrKkvLyup1U+nosfMFq9XzE4NhaORXU8ykQRIt7++T+qS3GBsFCwvsaDTiwbMwZ5cFqqqtbMOUG1ygO8ZcOA7wirxM8bVHtxq0cB0MColhXSBHUObGmb1RlOF0sjg00mCqwLqrLw8N03e8LcydjyyaMcvstLXRYXd7gRy8kj5X64Kp5U7cZbsNzYsqh651pvenjPjsrjHJgGbshIsIahtwN0zDwVsgekti5v1VssvG2dPbayIignnOMg/ivSpHibwDVQBw8Jx5KxAX6qqo2DIEUgdF3xIqMEO8q3rBAv8scpH2c5DhUAnQXPYRjEN8zG9LhY7+TzHG7w5zDIYvDmCPvu4745dgftZ3/8yygczpf1wqkread4W2YkmexN7jfPi8UpDyATMmLOpqK5vsUAACAASURBVP112XvFSXonYIiMmJ37fVeRcbWyjYSj0EE2LmazfqcsyTGWxYt+QMlrFngyiAu2e9l/AjKGF2jUzg8MLMcSEck5awUWXhWbgk+0AHcY4WS34x+IvIlLVsZhVMrftX01yxNBKtXgTTNdDYbNCN41xHUNz1MKshuVWYhsH/fNsbuo+n/7MhEL62W323t36/SaPcXAS5uUSvNmc1GsmksxczRf5jJzf91URgnFOfMZEFXH1vrMcSRPcVpqPKMxWYAjT0IgiqcwOS5mSHi5GJ8xM7hCiawfQcYQhA3Uejdik2yMi0EwumhpTAhZIdDztI3aTkVSBk7bD4nLZYYEDpY5Cc/EqbTNZ9B2gqBaG05uRyw7Ml71BpXbSa/XqyhRYN5w5d03+6UFO2dffhwlEizo5tMPrzerzXAycXqOI8vGm4f3m1UxXT2mGX4JUAOCc0eJpFuuo8BCOBo4WzjlfjuweB4h3lwueRO1ABIRIEGW9ZTtwrzxXMDdY9r3IBMImhBUq96X2EIi4XLSaACxA1CwDY+EUIOf4/Vni+v1WBDfvl0eBR3PcCWl3ApSGjlf8nOzUZ2nZze9N92kZ5w2e5PJzXC12tw7TrM7ioXd3h/2fLlz9rvvEonCVUFxmquLC9yzGAwni4UrcVz3E8yKqfE4t+R5kEytV0kPNL2PLAtgZvl1MMCYiEFmL5dx2sKzmYdcJLkdzdTXmsXg2oFpCj+ATCCEMa5DynjZnSsritMOmDj2dhC4goDLMn69Vfd9IQ5Mzc/r5cEId6khZI1zWOBlQb2tJ71u9+phgvvFZ6vnF3iMYDipPLDhsMLu75PsnP3iV4/h5NVVwSgPi+dgtfNasTa8KSsVr1sonPbeD1cIUXSJFzVLDVqd8uL22qc0SwtBNMCQDG3RtJgjEJXZtuhQGGUKxyVYLiYpfVzFpDOiWQqh/1AleDIgy46jy3jV3aHrLNozEsJQnmAQEcdRAsNowL4H4NWWyxzTWrx0+m2fokhavFRViHTV2bUzGHjdq9vF/c2qVqwW0+na82LQf/nQDR/q+6V4O5jt//1jNOqdsnL5n0XTbDSqjWq1WKzNbpxKkmM9r9ns14PUnBFMoD6kBuv1ug4aPRQnUEq1aTOb5ekSiRNhpZImaASFWouKG8EbOblo+awOJKj9BGQ0gUEGQJQ42YjJEvwksMYEjlcZRIbEuBgfjxnL5CktZ/KmSPr4hUgNlfi4iaeYgKT7AyOJx6ru72e16sl0OiUs+/zkuD24KsTCp8a+zX/3QPbrx/6tbrCxyr8uQqLJN/jpeS1dvHi+uQGohA9dpXK99inLIgSeBowwpXEWVJUp8nZKNYEpcwytMrZNEZjQxgQAsHWtyxhlnNx01ohCGrDlJ5CRJNBlSWDuXEWPulJMVqL9ekoFnuQpgsSzdNsRE4IW3xKaphHMARnSQiGGyIJXW9opFLTa5cooUSgYp69uVml1OrXHpiiE6POTeWd0dRUJe6d//WK/FW/H7OdfP+adaDiRePk6jbfm4JIgoQXnJ8XVTcdRDJk7rOhnLUTbOXF+JAj2EWHbdlzIZW1ElkwxE4/ThAYgw9NHgkDbJE7U6tEIm2ANWe/7FIMAZJeIwP6OFISxoLUGEr5fE+Ekp1NXKRWRgv0JZEw2K9AERYsigMxCAu4uO6CPbXP5dslbzKzdlxSZ6572+vfDoDpNp5F9lNVCGtM4n93hYxIRz/j7l/s7vrtmv3mMyuFY4qrb94+n6fnx/Kn24sWL3LIBMHv9/k2BjcgQ3LV98C/mkicphvmUwac+jbeVKAo3W3yf08czbimt7VQ8vHcfp9V8hjRzIPifgjdTS7alMX5nJOu6m2STysSfb6+n4kf+cEOVwRcvf8zcMqn0tNGAV2v1DsfKstfs3X4Y1kCKqaptl0oMUhH6tvi6YORdiY0O/rRvKds5++LjJAxu56pbXl9W05fVhonPTuZEs1Etrjb3vYFncG4F1FVqnjIvmc9e8S2JFu2fVaQox8WSkt6va1YJg4zEIEM2oKztypyuS8mkcdfSiM9fhCYRYUJcoLX6eVnS3UFlMpzV0tMpYii+xJvT48tg+u3mfUI+dFn27m9P9jfjdi8Z++QxwrIQSEq3H1Ynxct0o2Ha/LNnIU2d1orFzf2tJw0UVz/Di4cPyM+fis5oFoP7XaPJCCsr1y2L2Hqy7BZkECD6HZxdBVdmDDrBXPg8yoA5Q0TIb/XhL5JTKd8AxNKpy1ToWSie4RumeXl+Mnz/54LXdBNG5R/7c167Z7/86uOAjbn5KKv07jcAq/PzRqPx9IUAhofNnr/uDwavHgZKZ5ZS1f8DZLncWKu3dV3hIklQXWegrXIEDSDTCFB8/2bvfEIUx7M4ftq97B4Gds8DCzMLu7B7W5iBnYEd5hKIQiTGUqKUiZEYO5OoqGAUE/OnDCOUJRpUyj9ISYIltKitJYJYRR+qa+Yy0/TQDPR56cMw1z7u71fN7h61bx58B49e8uG9932/96fAV5oc3DNsGIl0hXendiLmwkgBB34sX2zdlYvz665MUQqlaTS88EtrklOvD7rD7QMIoxmPZ37swzhE+92XLY+Hy/uCwcbWnN0qCtVRZRE/Yc5SJK3Wrwbj2bBc3pr5CvBEuyGLpWII/jhMGQgQcJVsCcX6j5DhrqnEF8SLIgePQRiJ/LlQo/eAjIkBJ1i9aJmWZS67Y0q2eZtX47BySyM8Jcvjt4teJmMAyPzEq6+Pl5YOsYjxyZoIcgsAWSjTg19RkYGnUFV4cpBRKTubVbpL01rPNyDR3g0Zk6JPcWwCV74GksmkrldElxDR4vQJ7kIk3lVtFuEKbcPQr0sIQsdyu7G9SSH8eDkfWsPZ2K7Zmgx7O6bxmq0CfZkdL/V5ggh6fJY58ifvj3sKDtF+85e132Pm07DJP1C24EtNWK53JGn6bYwUIoVwB2I2u150c6q0GzIXLZERtFC6BpB5elziegMgc9A4SeIIIk0BZFEv4fcTRvFSQCOPN813/CN584NmK7MFXDkkA6VpqzXboRCx06nDqrHJccmA1+P3Fc2Rp/fdEbJDtH/83CY8ATPt8bCsz2jpuj6cdbP1et12HKHfx1FVtWWZmii2DSDbSVmOjtE4jlUvuUDIE4yCpGziwiIpGj/BkZykuStNNgQY85f1DebWdjOGuCI3kmRTirJSsoOOAFSJJHUciocV4+7bebHVLpfZfNLPJoxGiH3x9fF9/PDst5++aftBit5mE7rZHA4BZLoJoubqCvgJMQyU3VTVbNEBcUqScq7drixH0ySOgtTLBy+yGnpzIgoITWMgXOZoja/k4bsmIFovoacucXcNwxW/UTUJck7JioMxkmprYUrOUnAv2XAIEjXTzC/mPe8TrhwMHJctHqL98++vDTYUzDQSi+UYRJ/Zcri2tgkLSM3BVV3mcwLQhNOp5IiOZPMYiuwRMEkcw86LLFxb4IOQiUiMgZDRALINRwQfIcuXTlCxsAdkLpKMpUCe3+dl2d1HY2q49pyazJrF4tw0LXM2ux1kN28fGk+4RC9gvvjbseB/cPanX4ppzh8cZfIVOVsfDOCr5dZKEklr+PYeuDNVi6Px0ymIUY5tU9geZS0EI7H3kAVBpqTnS7CJ57+Q1TYtT9BIeoJsvopH9oEMQQQcat1vGRLDhRMyPn3eGS+Xw3na24rezbqDK2DfD34Ken0JLhldf3Hc6Hlw9ud3RPRaT45G5up7mdIQl6got7O5td22W60m0Jp1ECtzksRIEk/trpMhoiCmGLiZvwU8mQeuxK6ieA6N4ziKYbTbDTwZkTYAZNdVnHzsk90DMgCthEUiGKpptq10m6ZlWVvrFVCbWUqWFaVDy/cPITaR5szWlx8dP+qh2cfvgtH8Qrce7gZ1lY73v8FRWc7e3g/nPYKItuDiAlm2a1NGQ5A9irFIQShAyKoXUTbg8fvZVrOK47kILNvjADJ0o7PvIctXT2jXXpD9r93Rdap1lPGy9ZBpNNpbOCBal0AGyIexs1p3aAZ8iWLzCNkBFvw/fhcifPloL3q3qju2O5WKODZFXSndZYIzuFbLGo4dW3RpZJhHgCdDd0MmplLAk11wUcITZZOtZglDBJEHWkAM01KhkujB8TUPew1yMpe4P2QwDqPZ1WxYtKy2VTRn41W2bqfgBkiRH2RLz8qNQI+76311hOzwcrI37cBoFPL6G13gsSR1Sud4vuDUnoc3l0Bm3rXXizHF824MCEvA2R6QaTTDnE6ahs+f7CU57mJSiDOkG8fgoK5KVfQevJwK1GWl4EZ2Q/t/wjA3gOx+bZnttmU2u0qdmqSkGMPQSIH6dbVJRDOjTOBu/dkxJzs4T/aHn19nAGRPvMnmmKIcVb2RJKHP0KrNU5uhbm3bLzfjMIahGMqHI7uhEATYyoiW0kY5wCbLnAkgA6rBTcYxOqeqTvWyBedMPGXuUjgFEdC1N2RuNxYZ/7Te3q2tizElU0CQMCTJAMVayP56f/2MzYyCAf31v47q8uDso89eJEPwjHxUvwSfrqNKdBx/ip7QtCpnJ7PZXfHlEkDmuN2Ik3P2SPwjEg3UZUXnOBZe+c2fTwoMEzk5O4vQcXoq9S+LAXjHMqQ3BUxAtA+F7PUQpPsTuaaqDBOPTemYGlao+r9fLZ55g6OgMf/u8+M3PTz7/Me5nyB6PW+r2Oxm6x3VnuLA3FNVVbOy0u2OQbgsCLgLRUHQ3C0FU1qMxKrnCc7nS3NcQj/HSeas//TsjIyTDCOJ58UyESKIkJE+F92RD4AMHgKwV7ePj6tUWFKh4JVqigNfvV7NEz5ilAnmX3517Fk8QPvjJy99RPCh4X3GFfXu4CqriMDFCIKmqpJtU+HJJOziMS2CIWh4D8gQRmJwrAIP+ho+AFmzGmaY1DdPU2epSIqJpZBSPkrAa+Os0azyEfJDEn8Utet1WZZ5sUCpcAITli8G2dXylZXO+zKZoHfxy1+Ps70HWcT4ceFLNhosyxrF4fsujAkwcTq9UdWpbYs84j4hSRxFw/wekKF97aR6CbRlIOrzcemLCaVpCCagtFbgJa0/KeVb8D5YFF44n2AR5IPkpfSDqtJ9gUdESrMdh8oOBqv74dpi2bSvkQnob744OrKDtN9/+mYOVCSbJO4CXMtadrOKQlEU4qYjDNCDao2PAw3HkKiIIXuIwX4BbmGP+omA4X3C3XWVVaejKIptg1+HmiiTizbBGkAWeILPSgX8wyCL3UzpeAoBGoRSZRgpV7fLdatc/g971xfSRrrF70u3hXbLUvosiH9Awb4JFW+lre6DEIUMzkxmyAzNxAyzU7NmRjIBE0myJkMChW6LE5pQM4s0JKSBLk1MkMAa5T5skhdRUkTi89IH3/t4zxktdB/upfumJb8Jwxc15xPml/Pv+75zKIbWdWP/qLdl8bLi9mC3EpIZFptwEYkG1lrZ3MzPLywuOByrheD7vDuIJIv5fP+HZHPnsNkW12afVcMsz1Oqqmb2d6xln3Ns4RH1new+pSuKzvIUBJhrs7aLj/7NLP6PKNY2N49n5OC3vkIMc/3ZWiosLy0RhMYmaXX3YKy3ZfGyYvzxUdVPiarK8xxhpDofP25urr988u7dO8dLIfg+5gk+9Sza7Uiyc2BfpC9zXMCR1acIjA68v/5RTRNYQoo1Wvt7e39Z2Nr6Cy9w3D+AudQVXSL4evUXm3dtds765AW5LiawfSabzY4TzV0c27T6HDqWbbPe9xEBq67EZVoiKErTWF2pt0d6rXsvsS6bOdsluJYpkQzD0Ioer+SyO4HAy5gHC1L8tOJ84nDYfv753TJ4VTEvNt5a8y18hs83t+h0rnjgcv/kLAR2MLLkWZGk9WQyGY/Hq9W4IlcRlSq8DemaRkg8q9Ly29fP1uy/PYGPekAQrlt5XedAkvl8MPC6fKC8HAvLy7PLhbWF5XfLC25vZOPN1k4tJCd4ChfhU0mDo5TK2Wgv2X+pQ8yhw+MML5mmiDSjSDYVzpX3trYCkVih8B/v/NziomWn3KurQQg9kWZgS+HZ20HB2eacTrCnHvfKb+5ZV/TZK1VaYpOZBPhJEE2Ar4fl/XEg8ZTE8wmWklRRZFm40y9+WbM73Stuj8MGXLWvrvp8dpRuX7XbY9Y8Pp9j0T5vd3pta4WCb/1lJA+uWClby+kqZxg8fitY1pTiR9PDvf2Kl5xlo1NN07+0LTGGYWgapYqZRuPDn8CzLSGPOxbhAcdcMSzQ6XQ6wGQ5HE7ruBAg6F4JLrpj7vcxn1fwPXtdlUmSTjSKRQ3pRXAcp30B+LE/FA/5aYaHd8nXv9rt87iRyOWd94BGROEoHscOB7bIfOpe8TwFDYr/xeYmunZ7tWRCA7EmaEq/LjEEpxydTY73kheXHd+NDx4eHe8zyAiDJ5glUjLTrcaH8l6gFIVALgJu2mYQSLCIQQDcVpBfHry5Y8F1dyy2LuQFofTH22ocGMCrulbk/WImkUgYRrFYpJgLwEAJhUI0xfFgNbG6rE/wrnnzXiHmsRTi4vkk1hhJ/BRnWS8UCsJGJAJxw8ePnTrQk2MYEK7LMg1EPp162DOVV8Ixmxg86RqgIBhZIWlRJUlVDqfFZK5WCkSj0UAgsJV32J3z89ZhNLcHE+5BrATkXo+tBwuCSxB+L5WBY6jDCGoJ6zcClBDom2RDB/j9GFYqStEgSRJPreshfzj86nlJEKLRfMTtOYelIUG8BycKxqw0igCxJPxR9tWreCrVyMD3gGN1oCxBLqWa7ZPJ/l5t9atiMx9OdVscQYaqCYNXWSwlG8I9/7lKrrSzE3jzJuISwDP3xmLArSDEkV7vrFcQBNcm7sAHImbLyUpcAb1V5GlgFHr5/pAiw6XoIA05JsM7sKOMJGnFhlJ9i0dXshEBKBzwWi0gXJiNs8Viq8FgTMjnvV6rtU0kWipl31bi2BuR4nmVYkVdhiFn1k+nZvp7mYurg+8Hxu4fNCtvURmZGmYakvG0Cl56KhWP10o7pZKwsRGJ4kOPgIlDuPL5vCsSjW4IJaCYnFKXOFMzOFqpdDqpdFoUTUqiGJIiEJRJQAxgNuq7ACOT2VdkQlWTeKASNWUEz+2C3YSgUtjEOQJCYGMjgOun5VylUomn0DQShEkt6eFXfpLhzFbzZHK85/BfLdy4PfHgsHncamksuGccwRpg+RiJTsjpeDJerZWz8MSjgY03bwQrCvT97hJeChvAg3KtkpJVQzMZkqHoytHJ45F7Bwef2u1us9lBUu02O50uon0yPTI0ctjxS4TE8hSdSIYrORC8B3IDqBAtwBgzt9m9UjleiefA4jYMcPAS6NRRKklv01R69+Deo75rvad2BY1m38i9br2eIDEuRBcNG4SzjKrvy+lKOFUBQpTLf2bLr19YqL14/rxcQ6salsFLgqiPYrarpw+G7177d3/f8MTE6NjYzMwkYGZoaGx0dGJiuP/md//64eFhVWQs6bjIlEyGwzmgcLl2IbUGtC1na6C/Kvr+fiojJ1iW55O5XJKGTzBssn7cPHg8Ot7z968org08enxyelQXVY7BbjgI1VQxJaWKuiiHwym4wmEYpPEuZ9KynE7rNMsQvKFu+6ungwNfFNe5cePW9eu3bvx9NyGw7AjbhjE8T/O8JAHRwKePg8BwWMEp5HA9ncZTlenMfkZVCQJemdxukmf1xm7z08H04MTNXgWfK82z8bGpw+6uCX7UEk0Dt3hrP6tJSKDWVGCcKtESvFiJTSQymsbzIq0zKkXxDXE73B78iurAdx7+2C0SQFzSymxQBJ1URBBIY+KWVhRVVmFiRjVZwpRYlsYWdAwLDh5ldton9x/1XLGrj1s3+wanD9vNXRX3UVsdxjmeYUjS4gTcMdkO1GMonhKttky8CuxgGp3O2eBXbbi5MT75YxMVJIHOH8SbIk+RSygKZ5CAf8hrnmcTPMtSJE3SaFvTFTCTj/rv9Lbyfxux5q3bw5MPDrvFVgtUFEOYnMaruq5j71S/X9WwRiuL/QtZvwLemMppWkKvN8/uD3+tL363b2oXYgyO0wwQDAEDkFeSSLCeGItaCwRGkQMtKUqqyibMVv24e3h/rP9Obx//t8SzawN94J+dtTuVsGjFdRSFwYBW1DJovxhRBNYxFGdyFGi4TH23/WBs4OsToz/0P5o+O6r6UTtynCzrn5HJiNjrCSymLnHYWixc7zTbB9Mzo/23e3nXb49n1++O9409ODnrdjtp0YTnjeuPxaIGNpMmTfiBSGgG0i95/Onk3tjdf2THvr81MDZ1elQ1MV+SSJzryfMbvb3t94dCb3XONFOd9uHU5Gjfzd765DecPrszMDw0MnXS7jZ3j+stk1PRmoFJAxNZNIqtVKqONBjqv/nP1cx3A6MjILjVapkYZ6BQ4r/smc1uGzkSxy1168uSLMmyPmJHieI4sTxWEEt24hkngWcws3NoHkgssYdFH3jknhc8tB9CJwPbz6CDdMoth9zcWOwlCBAgGOQF9i222PLa/aVImcnBntRPQOCoKbJY/LNYxf7r3/7+j3/qOvP169cf3r2DNP+HZ2sm1pJ/fqGZGw/v/fhk59Vffnv/n/9++PAGlPWvN28+fnz76f3731798sOz9d+rgmzx3pO9n9+9e/fp08e3b9+8gdzr48d/fwJ1/fz9948ePFyrYgT7hs7OlXx2/eWze4+/e/Jib2/v1au9vZ0XPz16/ODh+h/MlPKZlw8e//jkpxc7O7rXvZ2dR99Bt8WMiUn+t0uqpK9Yc/nyV1TwSjlfKmWr1WrWzOYweCEIgiAIgiAIgiAIgiAIgiAIgiAIgiAIgiAIgiAIgiAIgiAIgiAIgiAIgiAIgiAIgiAIgiAIgiAIgiAIgiAIgiAIgiAIgiAIgiAIgiAIgiAIgiAIgiAIgiAIgiAIgiAIgiAIgiAIgiAIgiAIgiAIgiAIgiAIgiAIgiAIgiAIgiAIgiB/CvJmNZfN5qql2JOSaWazWTOTCnyXNXO5XNasRtvmoCl0E2ob7Gq9eFSopQtHxfX8IoPK6/WjQjp9v1DfMJNb6LFy2Wou+F0mqzHjvWeyJnzmGbZirtUL98GyetFc1mM5s+QbEEZblNhaPwKXLew2lSnWm+lWE3yUS/SLqTuK4E86d+NF1jJOjK2trX4t9uROH74/2Tr5NeCI/b5uvNVZj7StDftb8DlpJQ1RTTcq46ltWZ539rzR+qy/c4X95xdTQqDx+cRYXUto8qu2Cyw7CGpl9t1WNyqmjf6J37iZuG71bn9yDoaR0fl2v1tPLeMwc39365r+7NPfMvrD44TVzjV8y/pGc8FeL+wPxuc2zHs67jXSmYRpG1vGFX0jQLt000V2V7mOchy3EVsBw3GVo1x+GHBFxXUA16tHGj/V3yvH7cYHWD8cMK6kEFIwzpVDT1Yzcxcw3Z86inPJpBTccdjkNC6zA2dmsRGMV86MaTrS+EjblWzYSqFxARPk2jIhucPHjUJ5scPWJ9oterYhYIxJgsgKYvbY7Xw2ijU7HlgCk5ZSgo+swWFsK3b9Uf2R9V+XH71C2+ZNF9khY5ZtEfk09mRTMptajK0GhPecU8uyxHlUZPuKWNSm/E5sh7Z6oDBGYQibUmrbtnTlcM62bg49V0ITCGSjETSmxOGTg2h8SQvfYr4ZDJZS22VR3tsIN67DA+hQxQxb2WiPYVnBIgt6g0EpU/K8vXi9MhVHxz6IOfpXV4BBlYSI0uYzw+TF2vwu652pgnbUN0b/K12yGz0UVmHaFrHs0LDwI4tXsjdcY+VDbXuSyMpaZMRiZAmRle+CyOATE1n22FPUA9VQvS7QQoCPmLyoJZlycKFAYroj3ZiC0uBP7h2X4iKD5xGR6R+BZbIdWT/u9xYXWWEA8dLyCLGFmNk2sgUTnbUlROYPBWqYjXmJUL24yDITvzH1RHCvRvdWRQkLdhQjviB9JRG1XYuJzB8wNCiFvXvzRbYyV2QrlyJbKpLNEdna0AYny9mSUB1TfL8IehZP3nKnU663sfaxbsz8jUuIHHUXi8ycRTJiCa+2lMhaF4poPRMdxSgjno5NhApmmMuI7P9quAbCT0IkO7DErCXhJ/NKnu4Zh4F1kB/ZhMx2GIP5X7RiIpvtPhoc1gKR5W6tyMqNz4isOEdk4e1qdkBPI716RAihIN2QemVHzFKVWMToetIXD2hQNxSCw39HVHhyXFtWZJYkfFIMH5eJImtOXNtmWs8MciCdMTJfC5ST4+UiGWGM+SnUFSq+2KmhupSjJ6f1OZXX2GGeL3h/3pCXaRmB42XYR6uzhYIE5npIAckrc26ByNi8SPZ7RBZey2MqiN6btuJeZdjpGNtEcfg/ZBKuEdn2rTM128WC04tdo9PpjRzJIJCBU8O6SRYZ8Q8PRiy3U1oYydYGSujMj0jOz3aNRmN3yrnQRzqVXm0ZkTHCziNMd2OLXR8r6zKSMdZO7G6touAUhGAvOdveNYzBBfwFEwEVi2Gww5qAyVmUjaLjers3XmR3QGSU/PFIpjMUFo5kzSm3BYVNKseNVgY8kVo7HHpSZ1sWt8JBL9MDmdqEMjEartZ1kpFJN8ZggQBv805+KZFB5NNJXDceyZywyDpCwqThVGaD7pGZ0jcnpxXYEHBsMlXJLCEyUOT9o0KIZjFWm54y4aeYWh3kLCl1ynccfUxTS7DBcTFXTmWKNcOWI/0LKWoRkenj1KhfD3kEFI5ertwGkekN/CWRTM4RWfi4rO7CskHuTlSldeX+6qnn2DrBVSehu8s24VAqEeaMT6+TotpEQRI3stS4HhUZTRQZmAAqmTQXiKw15X46JlnneiJHQynhbLekvbrMcSnHi32bHThUbynmJ5d2OqFJ7RzmPRKWmrav6mKzre0TNnWCMUqLDBAHt/DGf77INr84koVFdkdIW1dMrBeUSP4YogARHreC27QAvoaVoPKsK/ppugAAEQRJREFUFgwHtamy2Igw1SgvKTJ4JNXQ/KzIMj1/FlBSNILBpdiDo1xYlD83F4uM8vHiK9CCBx7QaiF+FThMuKsFU2xd2067ge5KpyP9Q1ta6ZDIbGsknDvfiMiWimSZic5yIJXeLoQXaeDYEDAoD17/dhymC0sxCu/T/LHUkcyW29WlRObrzBP09LMiqyk9LziIO+GCr0WZ7UG6NSosFhkR44UvyFbafp4nKs+1I2w53ogHMqEzQ8i02qHbwFzHsT2dy26GRKZLS3Z4a0VG+P7XjmRpKKz0kWTdjZYa0nUc13G3r3OfjQvl2bbFhBHJYYtTaKhc12otJ7JZ/qPGzUjiHxRZeejaAmpepxeZRWng+i80nNMlIpk8X/gSak2n/VCE3r0/5VSfdHdjTXZ19cls2Yu8p2tKh2sfBfLDmciYuJWRTHyV41J7MSyyTce/IlCDaqRtta1fuG2ddDKB8lzasKfleSyGdIdGH9oaraUSfwqFGYxqO4P1+ZFsHZbcT5Ji2U1z9l7wpLtEdSkWi+zA9T07Lq70HDIiVPWiqT+Ywjyoc2OJVtn3kTFsr4WPSzgAbmMkO/TrHyoSbvxFTGQr8yOZfgUVFFn1guurQk4SnJLPp8r5Uj5QyLrUhmKPD+NHUC6VypdLufJSIuNn28IS+hK/fdlTMX5P1lKQ3zOLJ7zoyQOpfC63ROLPFoose+J64BPHyIN7dJEspq3YaSm0ec4kZkq5lAJKpfBxCZpVt1dkgsRvcTaZ+BKRWWGRFWyl763UWX2xDVVYN5uMmEwvY/Fn7sn4Zprq2yTr6rYrHslST12Iuv/j5up1G+eVqBPHWXmdOPG/v4sYa6ixgRsgjtfYAMEF0m0hFiTAkgVLvgAL+iFUqfAzuJAew3qtb4ayE0rKxtrd5jpMkUXWiWTxcObMmTMWNFdM/MY66GTRsV9fBRqurSg8k3YKlWEgVbFL/rCxsq6ZVLhux7aVBP96qiCD9fhtdJ5b334wzHd/CrKvnIUAMv5YQSnsQTGFonja/UuQ6YfaWCF1SfW+pC2D7PKHCSHGyj/drQPxj4698MlAdA6UpZ7PUsJFlZ+n/lfPGcjktBrI8LJy3Oh2u/3uYfX73qmALFBBlESJuyJsZv85yP6rs97IoMI9NPH5sZTHF38HssA8AAbgVlggWf0X6bKRqSU8Hf4dyI5JGLcxF3An3EapjtApE6zQJccIDpRCpaNqICPYzNr6vr97Xf728eeppEuUGhR3l9JW+/tTkJ0h78d0WeWQnmfaqH72/hZkUCOfbyEsMqLSxfsga6dYpgm16/0VyBh9mt6566Ww2R3sqVGVnu/1HCEDauq5HNv2DdaWetuqCjK4MLemsuwL/rVJTwZkQJaxX/ba36fAjSktgezD3mUOZF7d2FagcXmq97+2s1qtN7UDz6jguS3ot/v2Zfi91W57FdMlxFDCCTrkLBu06ZK4IOsJwDPsbI5s37aye+r38aKt2+PEXygITGS/GGOSFzrrdXvlg/9njB18qDRzyG7tEGQh3zaqpksWkjR0vT5CbpunAjJCoT4mlLwuq0OX0uXZDx78wuqD9jmiHZBl/oOcCtrbxb4fZ8uP/dkrbAxeSmjX63q73MXx22udpPAByDCS1bozAjtKlcL+cg/DFvyHA7IQ3ypUdA1X9N3exM7lFsdABuUFZj93mbzS2Npx6wvbV+1DIdFhmA/s7Z1Gj5CuCjIom4M9hd7v0ruyz/+jToYgYyHDfrHrU2JWTHo/kiXvg4xpJ11qIeAZ5EA2RGs1LI1OY27Wh59/s8k2n0xu4w2+yOZwxTfJsIoYa+yWNn30PjAVPGEkkwEJXZC1Q4XHR8dOlXE92WQcYX97L0cjWSjQgubaB3UeZC8KikHxWlxjnwNAZ+YXOZBxtNjxdbd6ukwRW/uFfVEVDU8FZMBRssd7WFxzODVBddMigEQ4IPMGBs2exD26100O+51l40AQtXsDGcFGk753OFk3NuTgdcwnhY9Alm309xDlJ4gQzVpbMdgWF2TdhId4q65M5v1ng/e0P2SMTI+CTGLgTqmzZA5k3qNGGzm/d54Qkg/pQqKb+WZ11K6YLjNnnmti4+ZkQAakLJnH+TVPCZoSfgdk8g1ktTtjfWrcFXmbKvMGovNLEBm//pwjnAPl+pcbsQ7hT2ZRFchMFZAdosmXe/TPMGKWXxrE5lYHZBdrDSALeLRyheeNtfpXB1kQEqXd3TabHCdrBpaSCXj719femVc7T7E4pGbgaLgX842VvpJmNZAJJIHxYJJb4/apgEzIp7Mzz1lXV94kYO9wMguydFXUhLJ0yTtOp0hagcqJTtdDvbdzonNLsvkrf0mk7e1FDRdkG4ZjRPhzQvWuVQVkB17UuwFWBow6HDe5rZ3N25u4nOtMC3BcIGeTDbM3Zqm8Cr4e5WRCyrW/dtZum0PmIAvOZDePb25u4pv5GmqpALObg4mzZ2PvTnYqRzJKiwfgunYKILPiQ56G2BsfS1KMZLVnpPMQHIpHb8DRLS8dyb7J0IQI1Mep1H4mSbSNoohg2KDk+Q1Q3JaizPmzjZm1gG7DAL6Idrrpx9MlvCZVVv1L6lIUIpk3gaSNgomT3q4GItpuk22E7UFBxOhoJKMq/bZqDh3L4k+XWPV9bvk5hXxmLAnllOBxZrk25cCggVNsniqCLCj6Qk9kWWcsFPxlF8aDKiv+E8ssSKn/M5MUwMDIyNE8lU0FwqEMF53haDQaLiKrjcjXZspZfWOHu9wuvTfsjEbno+YN0nTiTgJViGSwfYGCWoYpwfD3qXnb2uuvBvsLQruOwNYIV3PJLXUoBer3dLIPFf+FVCnWloRmo2tQVdlaHXA/czjBP9oOIG1mFxVBRihffCqQjcsujNoDtyoTL8RsL2E49SYdcnF1b0L8fV2W/LtrblW5tz8yRVEtoNwvl1mP2lKZeu33QHa7NHZkTdq9pU66rLUIvljwtMyExhpxodaN4yDjH4Hsy8yQUEkqDnoDDoDYb0GOqLfQggHAKXXOaz/hgJ13Op3bEsj++WyRrASyqbGeDfWc76msuJ1f42tHpP1u9yJQ69JevkiORkRH4Fmh4Qq4Sdl900xYiMnp7mOQXRZBVhvuDFR/mQGIuJys9uUG+z0Ak3HRR9GdAxsQ+WDzC5BBvfsBGWolCsATCjRi2tIzwOFTiGqMMuacOg+dATgUXWzW3+5EKsJQzdufCmQPlSLZUNiGZqEe8gZW3g+0G/ZbW03gqTJeNCL2dwhJauZvp9RbIjmhgt8UEpW3hITCoMhv/i7Ianehhj1FGUXkQWZ9Sbhd6yLffgGCAFUvmx5vKzG+/cDqA2cR51TeJCH76QLWJxsod1BlKhmGOx0VbuXOQIVE6eb+7FOly4dKkazrSwkhnqqc82uIPWcbG3IVp1RIumk4zh3TLxNMI5CUXLY7RC5EhWKzfKaaCiYhsZrHi98G2WUdeFGICANEGXdr2rEWhIWM7fIS02pnLflBtDoOMsE+iGS3Nxr4qdDrZf35Plv1ZX15A8eF0JzF/HZNVMrw4xVa+TtB/YZwF+6nDLLvmcZXMV1eTTizxn3hvNf+fea05vmRxd4us6nqZOGkn8ungFudICcierNsspfJgVON1kY7qB5SwrhrXK4IslrLN5Ts59FyIKtNIaYQnE95dLe2N0MaDmG67h0HWaA+8JM1E45sTN/lC3ZIohRKaF7Pn0SsZwmZObfSm1ujcaB3/SLIAv3PSYLMKv7VRuJwmgweFDAqHj21s6d8MZpRi6ZQz24L3EsCJQmpCiarQ9hfTQKrghRpCARDCoGPEvXYOUSt7kukKYOEp+L+H4Cstkg4Ixkry4MMuJeA+BgSvZsebvliEeN4O0TO5GMJ/SBh/Hok7mzAZVjqhgPOHpF5ws8dqawfc1TtBOfx4X1fdWLFcYyEmnFRJ4Oncff5QXYF7AkrSaqlP5mej76+PCfGOmgFDwvCxsWMZ0WnNEn9brhqDReTiHOcxaR6W8hJT4IHOKzPdTJ7Gq16vc7YZ1oCeoUKchCpDDIPWCWxPaxcdYlHJdJ2GpJx6o8XzVZv9DITBodnA3UkkFUAWX9rUIgt+12n1M6C5OJyJ1J2EI/paHa3GA07d8vEwJsGOPF1u9xWUvNxYQ1evJMF2fW7IMP9EVDvpUIprYKQ7eksCUKzLJpgm75iqW0JMqKEH0dSKyizMF6JIrVoTFRAZUpoCnSZrv01kZLgB7QEiuRLh8ogqzXm+4/IKILMewlNRPCTNgjhKop3gitFQkvo50fMXcdBtggYzk2Wdfz2zuAsA3cZ5hkkTPygFaiRjArSJGXwWIWduco/IzvcC/WydF1/Gj/xLb78ZJGs5k1DFGQJzk4ymaUjAjEgMPOyC3Dk68w1xIFtac1wagCqRUZpST6otWdYT6GYRCl+pghh1nYAiXWZ785VB1lttLXCewlktcsxQ3sGC60gw7F5leJgMNO7Y/3m4yB75PA2Q1X+uANvYrAby3NO2EadWZVQoqinFPu3vTvWTRwIwgBM4IjNQXKBnG0UgQ7REOkiBRMUpDR0KexiLW3pYku/gAvyEK4oeIYU5DHgtW5mSSTAa8KlCtL/XQnC9nqyXu/OziWc0MOFHNa720Lfl5UozLZW5Xkd7CSq+uiUHnlsT1ayHOpbNnOLoZ7v5DgTSvVNazFen+4l51GsdVIjRybXxtjduv0RZSORKO5OOCr4CFkmOI96sBe85iATO8tKH9fQUbryRi7IKMrW+hWGzoYjW+/R4PSg5aerNu+TscVBVntT/IRWhsTzMj/9IzXb+eiqG1BLB0L3pJtF+kwESeBU92f8Y50vs52zyGF3CkEmecYwUoZ9l9TjBNTp7De7NX2dSZ7f4VDgUkahSFLpmzMJxpU4TTi1SqcT8Su8ULP55Mp4+9rzRO+CjTilg6NYKalG+4+vcqKDLN0JMt7KE+Z6spL1pHN4gvwUZqP3i35c9+IcbBFfabpTRqM4yHizU/FuJSfVmV6m94fWSnKe3l4CmdV7lTR65X/vtbOiJM210U/Fzw2xnVnKLRWbKzx+tyDjLjpJDUGWyiiJTMUX3NE8pcdZtOkEqEXEalKUd2c3fc5VC2n4I3T5IBncNovmMd3uWtIzM+LFZCUylYTLTi4eyxQbdF6LnSDT+R3RIjcRU+/P+PoWht2KrfZLRPeWjsf1fGIa67w4R+T9V5eLjKuCvRUEWfVlFiZhsrg1/SG1FxGdvEz3RqTjbiYphuhMqJVoUKGykbv/88NEckk0uldb6bh8bWn/24/Jeusg5om//L7LNi94ZEFmmP0797p9QTdaclXfcO53xgdecKrNykpxTKb0ffHqPxzIAz1320tdDY5aUsq3x4mhInUz40UAsb08U2plupiqys/2Def8+mDMELPH09s3EdHRqMdMgqXjHvOaVn3kma0sWllFw376K4njzJhZ4VFrC3pfHu3FRcN1+msaLEiuq7fum0qED9dhnJNlcSz8bx9kLe8PK+ffqeqbTzxjTDSuy9PKne8/VZye+1n28I+613Eqg8dR9/6hdnX4u3bd7f29ufMHlZueWzX1FlXDGdvNoqs4c/VF/C64+tpwSmfmV5ypd33c0MZ+3hy/6MFa35yKZ1xkt9zNh14unBuXbu++OxiMuhPv0vT8q7puzch9PoWUsq+y+T9NsM+O+/KFbdGXj/zls4ZlNQ798MVFvmG/2tSfHuy/ffmm23QmdgkAAAAAAAAAAAAAAAAAAAAAAAAAAAAAAAAAAAAAAAAAAAAAAAAAAAAAAAAAAAAAAAAAAAAAAAAAAAAAAABO1T8DbbGC6eYYEgAAAABJRU5ErkJggg==;" vertex="1" parent="1">
          <mxGeometry x="696.5" y="-609" width="82.5" height="55" as="geometry" />
        </mxCell>
        <mxCell id="uJoUfiKjGKuOFhNrrg3Z-19" value="" style="endArrow=classic;html=1;rounded=0;exitX=0.25;exitY=0;exitDx=0;exitDy=0;" edge="1" parent="1" source="uJoUfiKjGKuOFhNrrg3Z-13" target="uJoUfiKjGKuOFhNrrg3Z-17">
          <mxGeometry width="50" height="50" relative="1" as="geometry">
            <mxPoint x="650" y="-220" as="sourcePoint" />
            <mxPoint x="270" y="-510" as="targetPoint" />
            <Array as="points">
              <mxPoint x="180" y="-540" />
            </Array>
          </mxGeometry>
        </mxCell>
        <mxCell id="uJoUfiKjGKuOFhNrrg3Z-20" value="" style="endArrow=classic;html=1;rounded=0;exitX=0.105;exitY=0.999;exitDx=0;exitDy=0;exitPerimeter=0;entryX=0.923;entryY=-0.059;entryDx=0;entryDy=0;entryPerimeter=0;" edge="1" parent="1" source="uJoUfiKjGKuOFhNrrg3Z-17" target="uJoUfiKjGKuOFhNrrg3Z-13">
          <mxGeometry width="50" height="50" relative="1" as="geometry">
            <mxPoint x="700" y="-270" as="sourcePoint" />
            <mxPoint x="750" y="-320" as="targetPoint" />
          </mxGeometry>
        </mxCell>
        <mxCell id="uJoUfiKjGKuOFhNrrg3Z-21" value="&lt;font style=&quot;font-size: 18px;&quot;&gt;&lt;b&gt;&lt;u&gt;Test-Dev Hugging Face Docker Space&amp;nbsp;&lt;/u&gt;&lt;/b&gt;&lt;/font&gt;" style="text;html=1;strokeColor=none;fillColor=none;align=center;verticalAlign=middle;whiteSpace=wrap;rounded=0;" vertex="1" parent="1">
          <mxGeometry x="359" y="-609" width="350" height="30" as="geometry" />
        </mxCell>
        <mxCell id="uJoUfiKjGKuOFhNrrg3Z-23" value="" style="rounded=1;whiteSpace=wrap;html=1;" vertex="1" parent="1">
          <mxGeometry x="409" y="-541" width="270" height="70" as="geometry" />
        </mxCell>
        <mxCell id="uJoUfiKjGKuOFhNrrg3Z-25" value="&lt;font style=&quot;font-size: 18px;&quot;&gt;&lt;b&gt;AgenticRag-RecSys&lt;/b&gt;&lt;/font&gt;" style="text;html=1;strokeColor=none;fillColor=none;align=center;verticalAlign=middle;whiteSpace=wrap;rounded=0;" vertex="1" parent="1">
          <mxGeometry x="459" y="-537" width="220" height="50" as="geometry" />
        </mxCell>
        <mxCell id="uJoUfiKjGKuOFhNrrg3Z-16" value="" style="image;sketch=0;aspect=fixed;html=1;points=[];align=center;fontSize=12;image=img/lib/mscae/Docker.svg;" vertex="1" parent="1">
          <mxGeometry x="419" y="-529.6" width="57.56" height="47.2" as="geometry" />
        </mxCell>
        <mxCell id="uJoUfiKjGKuOFhNrrg3Z-26" value="" style="rounded=1;whiteSpace=wrap;html=1;" vertex="1" parent="1">
          <mxGeometry x="1125" y="-370" width="150" height="290" as="geometry" />
        </mxCell>
        <mxCell id="uJoUfiKjGKuOFhNrrg3Z-27" value="&lt;b&gt;&lt;font style=&quot;font-size: 15px;&quot;&gt;&lt;u&gt;SDK&amp;nbsp;&lt;/u&gt;&lt;/font&gt;&lt;/b&gt;" style="text;html=1;strokeColor=none;fillColor=none;align=center;verticalAlign=middle;whiteSpace=wrap;rounded=0;" vertex="1" parent="1">
          <mxGeometry x="1146" y="-350" width="60" height="30" as="geometry" />
        </mxCell>
        <mxCell id="uJoUfiKjGKuOFhNrrg3Z-28" value="" style="outlineConnect=0;dashed=0;verticalLabelPosition=bottom;verticalAlign=top;align=center;html=1;shape=mxgraph.aws3.android;fillColor=#FFD44F;gradientColor=none;" vertex="1" parent="1">
          <mxGeometry x="1206" y="-366.5" width="48" height="54" as="geometry" />
        </mxCell>
        <mxCell id="uJoUfiKjGKuOFhNrrg3Z-29" value="" style="aspect=fixed;sketch=0;html=1;dashed=0;whitespace=wrap;fillColor=#2875E2;strokeColor=#ffffff;points=[[0.005,0.63,0],[0.1,0.2,0],[0.9,0.2,0],[0.5,0,0],[0.995,0.63,0],[0.72,0.99,0],[0.5,1,0],[0.28,0.99,0]];shape=mxgraph.kubernetes.icon2;kubernetesLabel=1;prIcon=api" vertex="1" parent="1">
          <mxGeometry x="530" y="-410" width="50" height="48" as="geometry" />
        </mxCell>
        <mxCell id="uJoUfiKjGKuOFhNrrg3Z-30" value="PromptAnalyzer" style="rounded=1;whiteSpace=wrap;html=1;" vertex="1" parent="1">
          <mxGeometry x="1144" y="-300" width="120" height="30" as="geometry" />
        </mxCell>
        <mxCell id="uJoUfiKjGKuOFhNrrg3Z-31" value="PromptAnalyzer" style="rounded=1;whiteSpace=wrap;html=1;" vertex="1" parent="1">
          <mxGeometry x="795" y="-360" width="120" height="40" as="geometry" />
        </mxCell>
        <mxCell id="uJoUfiKjGKuOFhNrrg3Z-32" value="LLM-Sefl Hosted&amp;nbsp; API" style="rounded=1;whiteSpace=wrap;html=1;" vertex="1" parent="1">
          <mxGeometry x="1136" y="-252.5" width="130" height="32.5" as="geometry" />
        </mxCell>
        <mxCell id="uJoUfiKjGKuOFhNrrg3Z-33" value="Keywords Extraction" style="rounded=1;whiteSpace=wrap;html=1;" vertex="1" parent="1">
          <mxGeometry x="1146" y="-211" width="120" height="30" as="geometry" />
        </mxCell>
        <mxCell id="uJoUfiKjGKuOFhNrrg3Z-34" value="LLM-Sefl Hosted&amp;nbsp; API" style="rounded=1;whiteSpace=wrap;html=1;" vertex="1" parent="1">
          <mxGeometry x="665" y="-231.25" width="130" height="32.5" as="geometry" />
        </mxCell>
        <mxCell id="uJoUfiKjGKuOFhNrrg3Z-35" value="" style="endArrow=classic;html=1;rounded=0;exitX=1;exitY=0.5;exitDx=0;exitDy=0;entryX=0.472;entryY=1.063;entryDx=0;entryDy=0;entryPerimeter=0;curved=1;" edge="1" parent="1" source="uJoUfiKjGKuOFhNrrg3Z-34" target="uJoUfiKjGKuOFhNrrg3Z-31">
          <mxGeometry width="50" height="50" relative="1" as="geometry">
            <mxPoint x="990" y="-300" as="sourcePoint" />
            <mxPoint x="1040" y="-350" as="targetPoint" />
            <Array as="points">
              <mxPoint x="840" y="-230" />
            </Array>
          </mxGeometry>
        </mxCell>
        <mxCell id="uJoUfiKjGKuOFhNrrg3Z-36" value="" style="endArrow=classic;html=1;rounded=0;exitX=1;exitY=0.5;exitDx=0;exitDy=0;" edge="1" parent="1" source="uJoUfiKjGKuOFhNrrg3Z-31">
          <mxGeometry width="50" height="50" relative="1" as="geometry">
            <mxPoint x="760" y="-150" as="sourcePoint" />
            <mxPoint x="1050" y="-450" as="targetPoint" />
            <Array as="points">
              <mxPoint x="1050" y="-340" />
            </Array>
          </mxGeometry>
        </mxCell>
        <mxCell id="uJoUfiKjGKuOFhNrrg3Z-40" value="Send-Request" style="edgeLabel;html=1;align=center;verticalAlign=middle;resizable=0;points=[];" vertex="1" connectable="0" parent="uJoUfiKjGKuOFhNrrg3Z-36">
          <mxGeometry x="-0.4403" y="1" relative="1" as="geometry">
            <mxPoint as="offset" />
          </mxGeometry>
        </mxCell>
        <mxCell id="uJoUfiKjGKuOFhNrrg3Z-37" value="" style="endArrow=classic;html=1;rounded=0;entryX=0.358;entryY=-0.05;entryDx=0;entryDy=0;entryPerimeter=0;" edge="1" parent="1" target="uJoUfiKjGKuOFhNrrg3Z-31">
          <mxGeometry width="50" height="50" relative="1" as="geometry">
            <mxPoint x="1010" y="-500" as="sourcePoint" />
            <mxPoint x="940" y="-490" as="targetPoint" />
            <Array as="points">
              <mxPoint x="838" y="-500" />
            </Array>
          </mxGeometry>
        </mxCell>
        <mxCell id="uJoUfiKjGKuOFhNrrg3Z-41" value="Respond" style="edgeLabel;html=1;align=center;verticalAlign=middle;resizable=0;points=[];" vertex="1" connectable="0" parent="uJoUfiKjGKuOFhNrrg3Z-37">
          <mxGeometry x="0.4288" y="-1" relative="1" as="geometry">
            <mxPoint y="41" as="offset" />
          </mxGeometry>
        </mxCell>
        <mxCell id="uJoUfiKjGKuOFhNrrg3Z-38" value="AgenticRAG-API" style="rounded=1;whiteSpace=wrap;html=1;" vertex="1" parent="1">
          <mxGeometry x="1165" y="-170" width="100" height="32.5" as="geometry" />
        </mxCell>
        <mxCell id="uJoUfiKjGKuOFhNrrg3Z-42" value="" style="triangle;whiteSpace=wrap;html=1;rotation=-180;" vertex="1" parent="1">
          <mxGeometry x="679" y="-381.25" width="60" height="80" as="geometry" />
        </mxCell>
        <mxCell id="uJoUfiKjGKuOFhNrrg3Z-43" value="" style="endArrow=classic;html=1;rounded=0;exitX=0;exitY=0.5;exitDx=0;exitDy=0;" edge="1" parent="1" source="uJoUfiKjGKuOFhNrrg3Z-31">
          <mxGeometry width="50" height="50" relative="1" as="geometry">
            <mxPoint x="780" y="-250" as="sourcePoint" />
            <mxPoint x="740" y="-340" as="targetPoint" />
          </mxGeometry>
        </mxCell>
        <mxCell id="uJoUfiKjGKuOFhNrrg3Z-44" value="" style="endArrow=classic;html=1;rounded=0;exitX=0.5;exitY=0;exitDx=0;exitDy=0;entryX=0.335;entryY=-0.101;entryDx=0;entryDy=0;entryPerimeter=0;" edge="1" parent="1" source="uJoUfiKjGKuOFhNrrg3Z-42" target="uJoUfiKjGKuOFhNrrg3Z-34">
          <mxGeometry width="50" height="50" relative="1" as="geometry">
            <mxPoint x="780" y="-250" as="sourcePoint" />
            <mxPoint x="830" y="-300" as="targetPoint" />
          </mxGeometry>
        </mxCell>
        <mxCell id="uJoUfiKjGKuOFhNrrg3Z-46" value="&lt;b&gt;&lt;font color=&quot;#ff0000&quot; style=&quot;font-size: 16px;&quot;&gt;False&lt;/font&gt;&lt;/b&gt;" style="edgeLabel;html=1;align=center;verticalAlign=middle;resizable=0;points=[];" vertex="1" connectable="0" parent="uJoUfiKjGKuOFhNrrg3Z-44">
          <mxGeometry x="-0.3149" relative="1" as="geometry">
            <mxPoint as="offset" />
          </mxGeometry>
        </mxCell>
        <mxCell id="uJoUfiKjGKuOFhNrrg3Z-45" value="" style="endArrow=classic;html=1;rounded=0;exitX=0.991;exitY=0.539;exitDx=0;exitDy=0;exitPerimeter=0;entryX=0.983;entryY=0.426;entryDx=0;entryDy=0;entryPerimeter=0;" edge="1" parent="1">
          <mxGeometry width="50" height="50" relative="1" as="geometry">
            <mxPoint x="678.54" y="-341.3699999999999" as="sourcePoint" />
            <mxPoint x="611.96" y="-341.395" as="targetPoint" />
          </mxGeometry>
        </mxCell>
        <mxCell id="uJoUfiKjGKuOFhNrrg3Z-47" value="&lt;font color=&quot;#009900&quot; style=&quot;font-size: 17px;&quot;&gt;&lt;b&gt;True&lt;/b&gt;&lt;/font&gt;" style="edgeLabel;html=1;align=center;verticalAlign=middle;resizable=0;points=[];" vertex="1" connectable="0" parent="uJoUfiKjGKuOFhNrrg3Z-45">
          <mxGeometry x="-0.1955" y="1" relative="1" as="geometry">
            <mxPoint as="offset" />
          </mxGeometry>
        </mxCell>
        <mxCell id="uJoUfiKjGKuOFhNrrg3Z-48" value="&lt;b&gt;&lt;font style=&quot;font-size: 15px;&quot;&gt;&lt;u&gt;Intent&lt;/u&gt;&lt;/font&gt;&lt;/b&gt;" style="text;html=1;strokeColor=none;fillColor=none;align=center;verticalAlign=middle;whiteSpace=wrap;rounded=0;" vertex="1" parent="1">
          <mxGeometry x="683" y="-356.25" width="60" height="30" as="geometry" />
        </mxCell>
        <mxCell id="uJoUfiKjGKuOFhNrrg3Z-49" value="AgenticRAG-API" style="text;html=1;strokeColor=none;fillColor=none;align=center;verticalAlign=middle;whiteSpace=wrap;rounded=0;" vertex="1" parent="1">
          <mxGeometry x="490" y="-355" width="130" height="30" as="geometry" />
        </mxCell>
        <mxCell id="uJoUfiKjGKuOFhNrrg3Z-52" value="" style="endArrow=classic;html=1;rounded=0;entryX=0.52;entryY=1.018;entryDx=0;entryDy=0;entryPerimeter=0;exitX=0.5;exitY=0;exitDx=0;exitDy=0;exitPerimeter=0;" edge="1" parent="1" source="uJoUfiKjGKuOFhNrrg3Z-29">
          <mxGeometry width="50" height="50" relative="1" as="geometry">
            <mxPoint x="555.8" y="-411.06" as="sourcePoint" />
            <mxPoint x="554.2" y="-449.00000000000006" as="targetPoint" />
          </mxGeometry>
        </mxCell>
        <mxCell id="uJoUfiKjGKuOFhNrrg3Z-53" value="" style="endArrow=classic;html=1;rounded=0;exitX=0.5;exitY=1;exitDx=0;exitDy=0;entryX=0;entryY=0.5;entryDx=0;entryDy=0;curved=1;" edge="1" parent="1" source="uJoUfiKjGKuOFhNrrg3Z-49" target="uJoUfiKjGKuOFhNrrg3Z-34">
          <mxGeometry width="50" height="50" relative="1" as="geometry">
            <mxPoint x="920" y="-230" as="sourcePoint" />
            <mxPoint x="970" y="-280" as="targetPoint" />
            <Array as="points">
              <mxPoint x="560" y="-270" />
            </Array>
          </mxGeometry>
        </mxCell>
        <mxCell id="uJoUfiKjGKuOFhNrrg3Z-54" value="Prompp-Factory" style="rounded=1;whiteSpace=wrap;html=1;" vertex="1" parent="1">
          <mxGeometry x="1165" y="-127" width="100" height="30" as="geometry" />
        </mxCell>
        <mxCell id="uJoUfiKjGKuOFhNrrg3Z-56" value="" style="endArrow=classic;html=1;rounded=0;entryX=0.419;entryY=1.005;entryDx=0;entryDy=0;entryPerimeter=0;" edge="1" parent="1">
          <mxGeometry width="50" height="50" relative="1" as="geometry">
            <mxPoint x="728" y="-160" as="sourcePoint" />
            <mxPoint x="727.47" y="-198.5875000000001" as="targetPoint" />
          </mxGeometry>
        </mxCell>
      </root>
    </mxGraphModel>
  </diagram>
</mxfile>
